<?xml version="1.0" standalone="no"?>
<!DOCTYPE svg PUBLIC "-//W3C//DTD SVG 20010904//EN"
 "http://www.w3.org/TR/2001/REC-SVG-20010904/DTD/svg10.dtd">
<svg version="1.0" xmlns="http://www.w3.org/2000/svg"
 width="1406.000000pt" height="1406.000000pt" viewBox="0 0 1406.000000 1406.000000"
 preserveAspectRatio="xMidYMid meet">
<metadata>
Created by potrace 1.14, written by Peter Selinger 2001-2017
</metadata>
<g transform="translate(0.000000,1406.000000) scale(0.100000,-0.100000)"
fill="#000000" stroke="none">
<path d="M6755 13763 c-276 -16 -548 -47 -770 -88 -2049 -376 -3742 -1825
-4432 -3795 -314 -894 -402 -1882 -253 -2820 118 -738 384 -1467 763 -2090
144 -236 387 -580 410 -580 20 -1 237 64 237 70 0 3 -38 55 -85 115 -372 477
-683 1065 -878 1660 -198 603 -288 1206 -274 1845 15 695 141 1319 398 1965
75 188 267 579 370 750 870 1455 2321 2431 3979 2675 294 43 452 53 810 53
529 0 882 -43 1385 -170 588 -148 1194 -420 1710 -765 1227 -822 2085 -2113
2364 -3558 65 -340 90 -581 98 -950 15 -721 -96 -1382 -342 -2045 -218 -584
-509 -1092 -922 -1603 -14 -18 -24 -34 -22 -37 3 -2 57 -18 121 -36 97 -27
120 -30 133 -19 57 47 381 518 502 730 399 696 651 1460 738 2240 54 487 45
1042 -26 1510 -187 1241 -755 2367 -1639 3250 -930 929 -2132 1511 -3427 1660
-306 35 -695 48 -948 33z"/>
<path d="M6665 13453 c-1456 -93 -2843 -786 -3797 -1897 -636 -739 -1069
-1638 -1242 -2576 -101 -550 -118 -1162 -46 -1725 118 -923 487 -1829 1051
-2580 53 -71 110 -145 126 -164 l29 -34 240 61 c269 69 561 135 799 182 88 17
166 33 174 36 9 3 -27 46 -100 122 -343 354 -595 705 -804 1122 -429 856 -564
1823 -389 2780 103 561 340 1146 656 1618 179 268 357 480 604 722 538 526
1178 893 1911 1094 824 226 1724 201 2543 -71 1194 -397 2163 -1291 2660
-2454 329 -768 429 -1644 285 -2479 -134 -769 -478 -1500 -989 -2099 -49 -59
-158 -174 -241 -258 l-151 -152 36 -6 c144 -26 563 -120 854 -192 l349 -87 39
45 c71 80 274 354 362 488 682 1036 987 2248 880 3504 -139 1653 -1040 3167
-2434 4094 -791 526 -1685 832 -2640 903 -122 9 -640 11 -765 3z m825 -173
c47 -25 27 -107 -50 -195 l-43 -50 36 -3 c88 -8 89 -118 1 -212 -54 -58 -97
-80 -155 -80 -43 0 -89 29 -89 55 0 7 -11 17 -25 23 -30 14 -33 38 -5 45 10 3
21 15 24 28 41 209 98 330 179 379 34 21 97 26 127 10z m-554 -161 c18 -20 21
-86 5 -116 -11 -21 -91 -97 -136 -129 -30 -21 -30 -22 -11 -43 25 -27 77 -28
101 -1 25 27 45 25 45 -4 0 -31 -48 -72 -100 -86 -112 -30 -190 62 -161 190 5
25 8 46 7 48 -2 1 -17 -5 -34 -15 -26 -15 -29 -22 -25 -48 7 -43 -31 -127 -73
-165 -30 -26 -88 -50 -121 -50 -6 0 -25 11 -41 25 l-29 24 -28 -29 c-34 -35
-89 -54 -116 -39 -33 17 -39 45 -39 168 0 120 0 121 -23 121 -45 0 -54 -25
-61 -170 -5 -121 -8 -137 -27 -152 -12 -10 -32 -18 -45 -18 l-24 0 0 150 c0
131 -2 151 -17 157 -11 4 -26 -4 -45 -25 -28 -32 -28 -34 -28 -156 0 -105 -3
-125 -17 -138 -42 -36 -91 -29 -80 12 4 16 -3 12 -29 -18 -47 -56 -112 -86
-171 -79 -25 2 -52 12 -61 20 -14 14 -18 12 -44 -29 -17 -28 -41 -51 -63 -60
-46 -19 -52 -18 -79 9 l-24 24 -17 -39 c-28 -64 -95 -90 -147 -56 -22 15 -23
14 -40 -23 -18 -41 -69 -79 -105 -79 -32 0 -60 31 -74 82 -7 24 -13 44 -14 46
-1 1 -19 -14 -38 -33 -29 -29 -43 -36 -69 -33 -39 4 -73 48 -83 108 -5 33 -10
39 -28 37 -29 -3 -32 21 -7 61 20 33 63 57 86 48 6 -2 19 -39 29 -80 15 -69
19 -76 40 -76 40 0 49 32 35 115 -14 83 -6 109 36 119 14 4 28 6 29 4 1 -2 12
-46 24 -98 49 -212 60 -230 110 -176 22 23 22 24 5 82 -31 109 -2 235 67 286
14 11 46 22 70 25 24 4 56 15 71 26 45 33 54 20 72 -110 10 -65 21 -131 25
-148 9 -39 39 -44 69 -12 21 23 22 28 11 71 -25 101 9 232 73 277 41 30 113
37 137 15 44 -40 28 -116 -24 -116 -21 0 -25 5 -25 29 0 35 -13 46 -39 32 -54
-29 -54 -198 0 -252 10 -10 29 -19 42 -19 34 0 101 47 131 93 23 36 26 51 26
129 0 78 -2 89 -17 86 -28 -5 -27 30 3 57 48 44 104 46 104 4 0 -20 4 -18 33
14 44 51 86 58 123 22 25 -25 28 -26 37 -9 33 59 97 86 136 56 35 -26 44 -71
38 -183 -6 -110 -1 -124 34 -110 39 14 46 30 58 127 15 122 15 135 -5 127 -12
-4 -15 0 -12 18 4 30 64 71 98 67 23 -3 25 -6 24 -58 0 -30 -4 -100 -8 -155
-8 -89 -7 -102 9 -115 15 -13 20 -11 41 13 18 21 24 40 24 75 0 46 -1 48 -27
47 -23 0 -29 5 -31 27 -5 40 35 64 82 48 30 -9 40 -8 75 10 23 11 67 45 98 75
31 31 68 58 82 61 14 3 30 7 35 8 23 5 66 -8 82 -25z m830 -20 c24 -6 46 -15
49 -19 3 -4 -2 -61 -10 -126 -8 -65 -13 -119 -12 -121 2 -1 34 38 71 87 97
128 114 143 150 136 16 -4 31 -8 34 -10 2 -2 -15 -67 -39 -144 -23 -78 -39
-148 -36 -156 8 -20 46 -21 73 -1 12 8 24 29 28 47 9 45 67 130 111 164 26 20
52 29 89 32 59 5 88 -6 112 -44 15 -23 15 -28 0 -67 -20 -53 -59 -83 -145
-113 -71 -25 -84 -43 -55 -75 13 -14 30 -19 71 -19 81 0 115 19 150 82 50 88
132 148 203 148 43 0 96 -24 110 -50 28 -53 -25 -124 -76 -102 -24 11 -24 13
-8 37 39 59 -24 76 -79 21 -44 -43 -77 -112 -77 -159 0 -48 28 -67 97 -67 84
0 121 21 176 100 49 72 55 86 35 92 -24 8 2 36 41 43 61 10 109 -21 89 -58 -9
-17 -8 -19 8 -13 11 5 35 10 54 13 46 7 90 -26 90 -67 l0 -29 35 15 c47 19 78
18 109 -7 45 -35 36 -71 -44 -188 -39 -56 -68 -106 -65 -111 3 -6 23 -10 44
-10 34 0 41 5 71 51 83 128 235 176 313 98 25 -25 28 -35 23 -62 -4 -18 -19
-44 -34 -59 -30 -30 -121 -58 -189 -58 -41 0 -43 -1 -43 -30 0 -41 37 -65 90
-56 31 5 40 3 40 -8 0 -24 -41 -46 -87 -46 -78 0 -138 38 -149 95 l-6 32 -44
-10 c-83 -19 -157 24 -137 80 3 10 35 62 71 116 71 104 72 121 11 115 -29 -3
-41 -14 -102 -101 -83 -117 -104 -135 -147 -117 -17 7 -30 16 -30 21 0 5 37
63 81 128 45 65 79 124 75 130 -4 6 -22 11 -40 11 -38 0 -49 -11 -131 -128
-61 -89 -84 -105 -127 -90 -30 11 -33 19 -18 49 10 17 8 18 -15 9 -34 -13
-136 -13 -170 0 -33 13 -75 58 -75 81 0 27 -15 31 -53 15 -91 -37 -187 -27
-231 25 -13 16 -26 33 -28 39 -2 7 -21 3 -52 -11 -55 -24 -113 -21 -133 8 -18
24 -16 78 6 151 11 34 18 62 16 62 -1 0 -37 -47 -79 -105 -43 -58 -83 -105
-90 -105 -7 0 -20 6 -31 14 -19 14 -19 18 0 181 l6 50 -32 -58 c-42 -76 -118
-147 -157 -147 -16 0 -35 7 -42 15 -15 17 -17 92 -4 105 18 16 51 20 68 7 16
-11 17 -17 6 -36 -20 -38 -4 -35 37 6 39 39 130 200 119 210 -3 4 -23 1 -45
-5 -51 -16 -51 -16 -51 15 0 59 55 77 156 52z m-3116 -589 c41 -22 45 -98 4
-114 -26 -10 -31 -7 -37 24 -8 36 -40 41 -58 8 -25 -47 9 -189 55 -227 37 -31
116 5 116 51 0 27 34 19 38 -9 5 -33 -26 -91 -64 -119 -109 -83 -222 8 -231
186 -4 64 -1 82 19 120 37 71 107 107 158 80z m-580 -149 c25 -49 0 -135 -50
-171 -56 -40 -130 -13 -130 47 0 46 52 84 66 48 8 -20 33 -19 56 2 11 10 18
30 18 55 0 42 21 53 40 19z m5898 -110 c36 -25 49 -62 36 -100 -11 -30 -47
-51 -76 -43 -30 8 -33 30 -7 58 24 25 24 26 4 40 -12 9 -30 12 -45 9 -68 -17
-160 -111 -160 -166 0 -39 44 -73 87 -66 28 5 33 3 33 -14 0 -22 -35 -39 -79
-39 -45 0 -114 41 -135 81 -18 33 -18 41 -7 79 20 68 112 156 189 181 46 14
126 5 160 -20z m-5773 -91 c24 -83 47 -134 78 -167 26 -29 37 -29 37 1 0 24
24 41 42 30 16 -10 4 -111 -16 -133 -28 -31 -65 -35 -97 -12 -16 12 -30 21
-32 21 -3 0 -7 -23 -9 -52 -4 -40 -11 -57 -32 -75 -15 -13 -36 -23 -48 -23
-32 0 -83 60 -106 125 -28 78 -55 128 -67 127 -5 0 -16 -26 -24 -57 -13 -55
-13 -57 15 -108 24 -43 29 -64 29 -122 0 -220 -206 -250 -284 -41 -53 141 -2
276 103 276 44 0 48 -20 9 -46 -42 -26 -52 -45 -53 -90 0 -48 41 -135 77 -164
85 -67 132 54 55 142 -11 13 -19 15 -33 7 -22 -11 -59 19 -59 49 0 26 32 52
66 56 26 3 30 9 45 70 25 97 38 125 69 141 37 19 44 9 105 -132 27 -62 54
-114 61 -117 7 -3 23 7 35 22 32 40 22 101 -29 189 -23 39 -42 84 -42 99 0 37
28 66 59 62 22 -3 28 -12 46 -78z m6107 -162 c10 -4 22 -18 28 -29 9 -17 7
-24 -17 -44 -15 -13 -41 -35 -58 -49 l-30 -26 30 -25 c17 -14 34 -25 39 -25 4
0 31 18 58 40 58 46 85 50 117 16 l23 -24 -88 -69 c-49 -37 -104 -83 -124
-101 l-35 -32 24 -20 c33 -28 58 -25 99 11 120 105 293 106 342 2 8 -18 27
-37 42 -42 14 -5 31 -18 37 -29 10 -19 -1 -28 -113 -102 -115 -75 -146 -103
-128 -113 4 -3 30 -8 57 -12 28 -4 56 -12 63 -17 19 -16 14 -44 -10 -55 -22
-10 -22 -11 -4 -19 11 -4 42 -3 70 3 60 13 196 64 196 74 0 4 -18 16 -40 26
-44 20 -45 22 -26 48 17 24 70 24 97 -1 26 -23 79 -99 79 -112 0 -5 -41 -44
-90 -87 -50 -43 -89 -80 -86 -82 2 -2 53 5 112 16 143 27 179 27 198 -1 9 -12
16 -25 16 -29 0 -3 -54 -39 -120 -79 -137 -83 -148 -93 -130 -116 32 -38 47
-37 161 7 76 29 107 45 99 53 -30 30 11 41 60 16 43 -22 63 -50 54 -74 -3 -8
-58 -35 -122 -61 -64 -26 -124 -53 -132 -61 -13 -14 -12 -18 13 -40 15 -13 35
-24 43 -24 8 0 65 20 126 45 62 25 117 45 124 45 20 0 65 -42 62 -58 -2 -10
-55 -37 -138 -72 -109 -45 -135 -59 -135 -75 0 -14 8 -21 28 -23 35 -4 35 -29
1 -43 -48 -18 -118 20 -137 74 -4 10 0 31 8 47 l15 30 -45 11 c-68 17 -102 69
-75 118 8 15 3 20 -32 30 -70 22 -103 71 -81 127 3 9 40 39 82 66 42 27 67 47
56 44 -41 -11 -218 -46 -236 -46 -21 0 -42 32 -34 52 3 8 39 43 80 78 41 35
74 64 72 66 -1 1 -27 -6 -57 -16 -130 -45 -230 -32 -230 29 0 26 -5 31 -36 40
-67 19 -107 84 -73 118 7 7 -5 12 -42 15 -44 5 -58 11 -82 38 -24 27 -28 39
-24 66 l6 34 -43 0 c-64 0 -110 34 -114 84 -3 35 1 43 48 86 l51 47 -36 22
c-20 11 -38 21 -41 21 -2 0 -31 -20 -65 -45 -34 -25 -69 -45 -78 -45 -22 0
-61 28 -61 43 0 7 54 54 120 105 102 79 120 97 114 114 -4 12 -1 24 7 29 14 8
63 2 91 -13z m-6733 -292 c98 -51 165 -213 130 -317 -13 -38 -56 -89 -76 -89
-7 0 -13 -2 -13 -5 0 -3 34 -57 75 -122 41 -64 75 -124 75 -132 0 -25 -29 -61
-48 -61 -11 1 -46 47 -96 125 -43 69 -82 125 -86 125 -4 0 -10 -14 -14 -32 -8
-43 -43 -78 -76 -78 -30 0 -72 40 -149 143 -24 31 -46 57 -50 57 -17 0 -31
-27 -31 -57 0 -25 17 -54 75 -128 50 -64 75 -105 75 -122 0 -28 -25 -63 -44
-62 -6 0 -51 52 -99 115 -49 62 -93 114 -97 114 -5 0 -14 -9 -20 -19 -22 -43
-11 -71 65 -168 52 -66 75 -103 75 -122 0 -28 -20 -53 -52 -64 -10 -4 -18 -16
-18 -27 0 -24 -34 -96 -59 -124 -111 -126 -379 14 -454 238 -42 125 11 251
104 248 63 -2 112 -59 91 -106 -13 -30 -51 -41 -58 -18 -16 51 -49 66 -79 36
-35 -36 7 -133 98 -224 108 -109 211 -140 266 -81 25 26 51 89 51 121 0 7 -29
50 -66 96 -60 78 -84 99 -84 74 0 -5 -7 -7 -15 -4 -31 12 -8 123 28 137 8 3
24 -1 34 -8 18 -13 20 -12 16 10 -7 34 15 93 39 106 11 6 35 9 52 6 31 -5 31
-5 28 37 -2 28 4 51 17 74 17 27 27 32 57 32 41 0 65 -21 149 -133 28 -37 58
-67 67 -67 19 0 44 63 32 82 -73 121 -117 179 -125 167 -7 -12 -11 -11 -24 2
-37 37 30 152 69 120 12 -10 16 -6 21 21 18 81 80 117 144 84z"/>
<path d="M7391 13203 c-27 -33 -97 -200 -88 -209 5 -5 99 112 126 156 24 41
28 90 7 90 -8 0 -28 -17 -45 -37z"/>
<path d="M7322 12957 c-36 -36 -42 -49 -42 -84 0 -96 78 -95 115 1 20 53 17
94 -11 112 -18 13 -24 10 -62 -29z"/>
<path d="M6833 13065 c-22 -15 -47 -74 -57 -133 -5 -29 -4 -31 13 -23 29 16
90 88 97 116 13 50 -12 69 -53 40z"/>
<path d="M5252 12755 c-58 -25 -76 -103 -47 -202 18 -62 37 -80 68 -66 44 20
52 53 37 161 -16 123 -17 124 -58 107z"/>
<path d="M8250 12904 c-17 -15 -42 -49 -56 -76 l-25 -50 23 7 c92 28 173 120
122 139 -25 9 -30 8 -64 -20z"/>
<path d="M9390 12456 c-34 -23 -86 -84 -78 -91 8 -8 114 22 140 39 33 21 46
55 27 67 -24 15 -53 10 -89 -15z"/>
<path d="M10500 11594 c-62 -35 -90 -63 -90 -90 0 -27 34 -54 67 -54 18 0 95
45 202 117 3 2 -6 14 -19 28 -32 35 -98 34 -160 -1z"/>
<path d="M3482 11598 c-7 -7 -12 -30 -12 -52 0 -35 39 -110 107 -205 2 -3 14
6 28 19 20 19 25 33 25 72 0 103 -100 214 -148 166z"/>
<path d="M6720 12294 c-626 -56 -1123 -194 -1645 -458 -444 -225 -793 -482
-1150 -847 -428 -438 -749 -944 -964 -1522 -128 -345 -215 -735 -251 -1132
-16 -174 -13 -591 5 -780 81 -845 400 -1632 934 -2300 108 -135 286 -330 383
-421 l66 -61 138 23 c1569 268 3261 282 4929 44 175 -25 321 -49 710 -117 27
-4 42 6 159 118 990 947 1471 2317 1295 3688 -136 1064 -676 2054 -1495 2745
-276 233 -543 408 -864 569 -466 234 -903 365 -1440 433 -120 15 -698 28 -810
18z m810 -228 c540 -71 1005 -219 1455 -463 939 -508 1647 -1356 1973 -2363
39 -119 102 -356 102 -381 0 -23 -84 1 -190 55 -58 29 -134 63 -169 75 -35 12
-78 29 -95 38 -49 25 -222 206 -341 357 -202 257 -229 288 -341 392 l-110 103
-66 -92 c-36 -51 -88 -126 -115 -167 -73 -108 -144 -182 -340 -355 l-173 -153
-68 -11 c-178 -27 -172 -28 -331 46 l-144 68 -99 130 c-54 72 -152 207 -218
300 -131 187 -127 184 -387 364 -72 50 -138 91 -146 91 -9 0 -40 -22 -70 -50
-30 -27 -62 -50 -71 -50 -27 0 -319 273 -343 321 -12 24 -40 83 -63 131 -22
48 -67 120 -100 160 -75 92 -351 390 -366 395 -6 2 -56 -69 -110 -158 -90
-147 -113 -175 -260 -329 l-161 -169 -78 -181 c-43 -99 -81 -182 -85 -185 -4
-3 -53 11 -109 30 -90 30 -234 102 -312 157 l-27 18 -117 -146 c-133 -166
-151 -193 -161 -249 -4 -22 -13 -57 -20 -77 -17 -48 -176 -232 -214 -248 -53
-22 -174 -8 -259 29 -65 29 -83 33 -141 29 -63 -3 -71 -7 -191 -85 -69 -44
-135 -83 -145 -87 -26 -8 -82 28 -207 132 -105 87 -137 102 -230 102 -72 0
-91 9 -247 125 -69 51 -135 95 -148 98 -41 10 -171 -92 -234 -183 -30 -42 89
208 154 325 396 714 984 1290 1708 1672 439 232 973 394 1455 442 61 6 124 13
140 15 17 2 179 3 360 1 236 -2 366 -7 455 -19z m-751 -1268 c61 -198 66 -210
121 -273 22 -25 40 -52 40 -58 0 -7 7 -68 15 -137 12 -105 29 -185 61 -291 4
-14 11 -15 44 -7 56 14 78 6 143 -54 57 -53 57 -53 93 -181 20 -71 34 -130 32
-132 -2 -2 -27 14 -55 36 -29 21 -55 39 -59 39 -21 0 25 -260 71 -400 14 -41
43 -173 65 -294 21 -120 41 -220 43 -222 2 -2 18 17 36 42 18 26 35 44 37 41
3 -3 48 -86 99 -183 92 -175 94 -178 105 -149 13 33 10 62 -14 145 -9 30 -16
77 -16 104 l0 49 25 -23 c32 -30 32 -20 0 95 -14 49 -25 94 -25 98 0 5 23 -16
50 -45 l51 -53 -7 73 -6 72 31 11 c40 14 40 29 1 183 -19 76 -44 144 -67 185
-34 61 -39 80 -64 255 -32 230 -30 243 43 308 29 26 58 48 64 48 12 0 154
-256 177 -321 9 -24 26 -79 38 -121 l22 -78 107 0 108 0 4 -92 c5 -89 8 -98
67 -220 l62 -127 9 -268 9 -268 63 -57 c34 -32 66 -58 69 -58 4 0 10 30 14 68
3 37 7 74 8 82 2 8 18 -54 37 -138 l35 -153 45 6 c25 4 49 10 54 15 5 5 -3 43
-20 88 l-28 80 22 133 c12 73 26 135 31 139 5 3 11 28 13 55 3 48 4 50 36 53
30 3 32 6 32 41 0 64 29 80 232 127 l151 34 96 84 c341 297 313 268 470 489
62 86 116 157 120 157 5 0 27 -73 50 -162 23 -90 46 -173 51 -186 6 -14 32
-32 68 -48 42 -18 73 -41 110 -84 35 -40 82 -77 145 -114 l92 -54 49 -121 c56
-139 43 -130 216 -156 94 -14 107 -20 268 -104 35 -18 98 -40 141 -48 l79 -16
11 -68 c14 -88 14 -92 -5 -85 -9 4 -23 1 -30 -5 -25 -20 -16 -44 21 -58 40
-14 41 -15 54 -166 17 -184 24 -415 16 -515 l-7 -95 -94 -57 c-51 -31 -111
-62 -133 -69 -37 -11 -39 -14 -34 -40 5 -25 2 -29 -16 -29 -14 0 -21 -6 -21
-20 0 -11 6 -20 14 -20 19 0 28 -28 16 -49 -6 -12 -17 -17 -32 -14 -13 2 -35
-2 -51 -10 -22 -12 -25 -16 -13 -26 10 -9 21 -7 44 6 30 17 32 17 45 -1 14
-19 16 -18 56 15 l43 34 18 -23 c12 -14 29 -22 49 -22 26 0 31 -4 31 -25 0
-26 -25 -45 -59 -45 -16 0 -21 -6 -21 -26 0 -23 -3 -26 -26 -21 -20 3 -27 -1
-35 -19 -7 -20 -14 -23 -33 -18 -22 5 -25 3 -21 -15 3 -14 -6 -28 -28 -46
l-32 -25 -34 36 c-26 29 -30 38 -20 45 9 6 19 3 28 -9 9 -12 15 -13 18 -5 3 8
14 11 29 7 30 -8 32 8 2 21 -13 6 -24 18 -26 28 -3 17 -1 16 35 -3 48 -26 73
-26 73 0 0 11 -7 20 -15 20 -8 0 -15 7 -15 15 0 19 3 19 50 -5 32 -16 40 -17
40 -6 0 8 -7 17 -16 20 -27 10 -4 26 37 24 42 -1 66 13 54 31 -4 7 -20 9 -42
5 -31 -6 -35 -5 -30 10 12 31 -22 29 -57 -2 -36 -31 -73 -48 -83 -38 -4 3 -1
6 5 6 7 0 12 7 12 15 0 20 -19 19 -42 -2 -17 -15 -20 -15 -48 12 -39 37 -38
45 5 45 19 0 35 5 35 11 0 7 11 8 30 4 26 -6 30 -4 30 14 0 16 -6 21 -25 21
-28 0 -28 0 -15 34 6 16 17 26 30 26 11 0 20 5 20 10 0 6 -7 10 -15 10 -8 0
-15 3 -15 6 0 3 7 12 15 20 16 16 20 44 7 44 -5 0 -26 -13 -48 -30 -43 -33
-60 -36 -87 -15 -18 13 -18 14 2 25 12 6 21 17 21 25 0 18 -4 19 -31 3 -17
-11 -22 -10 -33 5 -16 20 -27 10 -44 -38 l-10 -30 -1 32 c-2 58 34 105 54 73
6 -10 55 -14 55 -5 0 3 -5 14 -11 24 -10 14 -8 24 11 49 14 19 20 37 16 48 -6
15 -9 15 -32 -7 -24 -22 -26 -23 -35 -6 -13 23 -29 12 -29 -19 0 -29 -16 -64
-30 -64 -6 0 -10 18 -10 40 0 29 7 48 30 73 17 19 30 45 30 58 -1 23 -2 23
-31 -10 -38 -41 -51 -30 -47 44 2 39 0 50 -12 50 -12 0 -14 -12 -11 -62 1 -35
-1 -63 -6 -63 -5 0 -20 11 -33 25 -13 14 -28 25 -32 25 -16 0 3 -44 33 -75 21
-23 29 -41 29 -68 0 -20 -4 -37 -10 -37 -14 0 -30 35 -30 64 0 29 -18 44 -26
22 -8 -20 -28 -20 -44 -1 -7 8 -16 12 -21 9 -17 -10 -9 -41 17 -63 19 -17 23
-26 15 -34 -17 -17 -13 -37 8 -37 10 0 24 7 31 15 7 8 17 15 22 15 12 0 38
-63 38 -92 0 -17 -5 -12 -20 20 -20 44 -40 56 -40 22 0 -21 -24 -28 -35 -10
-9 15 -25 12 -25 -4 0 -7 10 -21 23 -29 18 -13 19 -16 5 -16 -10 -1 -18 -5
-18 -11 0 -18 -34 -11 -72 15 -20 14 -42 25 -47 25 -19 0 -12 -28 11 -44 18
-13 19 -16 5 -16 -24 0 -21 -28 3 -32 12 -2 21 -7 21 -13 0 -5 5 -16 11 -22 8
-10 5 -13 -10 -13 -22 0 -47 -24 -38 -38 3 -4 36 -8 75 -8 64 1 69 0 55 -15
-19 -21 0 -37 21 -19 12 10 15 9 15 -4 0 -17 29 -19 41 -2 10 13 29 -3 29 -24
0 -13 -9 -22 -27 -26 -16 -3 -33 -7 -40 -9 -18 -6 -85 15 -115 36 -32 23 -53
5 -22 -18 38 -29 -39 -3 -84 28 -51 34 -52 35 -52 9 0 -16 -7 -20 -33 -20 -19
0 -37 -3 -40 -7 -15 -14 18 -33 59 -33 24 0 44 -4 44 -10 0 -5 -4 -10 -10 -10
-5 0 -10 -7 -10 -15 0 -20 6 -19 46 5 22 14 35 17 39 10 4 -7 -2 -14 -13 -17
-14 -3 -18 -11 -15 -24 7 -26 33 -24 77 6 34 23 36 24 36 4 0 -12 -10 -23 -25
-29 -14 -5 -25 -14 -25 -20 0 -13 27 -13 36 1 4 8 9 7 15 -2 8 -11 12 -11 23
4 8 10 18 17 22 16 23 -5 71 16 91 40 l23 26 0 -27 c0 -34 -69 -90 -135 -108
-43 -12 -48 -11 -77 10 -30 22 -30 22 -23 1 7 -24 0 -26 -35 -6 -32 19 -40 18
-40 0 0 -13 -7 -15 -33 -10 -24 5 -37 2 -46 -9 -10 -12 -11 -16 -1 -16 7 0 10
-7 6 -15 -4 -10 1 -15 14 -15 11 0 20 -6 20 -14 0 -10 7 -12 22 -8 14 3 19 2
14 -6 -5 -8 2 -12 18 -12 14 0 26 -2 26 -4 0 -2 3 -12 7 -22 5 -15 2 -16 -29
-10 -49 9 -71 0 -56 -24 6 -9 8 -25 4 -35 -6 -17 -8 -17 -29 4 -30 27 -47 27
-40 0 5 -17 2 -20 -13 -16 -50 15 -74 18 -74 10 0 -15 23 -33 42 -33 10 0 18
-7 18 -15 0 -9 9 -15 25 -15 14 0 25 -4 25 -10 0 -5 9 -10 20 -10 11 0 20 -4
20 -9 0 -5 9 -7 20 -4 11 3 20 0 20 -5 0 -6 21 -32 47 -56 45 -44 48 -45 66
-28 19 16 20 16 8 -6 -25 -47 -118 -66 -175 -37 -26 14 -31 14 -38 1 -6 -10
-18 -13 -42 -9 -42 7 -53 -10 -26 -37 11 -11 20 -25 20 -31 0 -6 7 -9 15 -5
10 4 15 -1 15 -14 0 -22 12 -25 40 -10 15 8 17 6 13 -11 -5 -17 -2 -19 21 -13
20 5 26 2 26 -10 0 -37 -73 -44 -111 -10 -15 13 -17 13 -23 -2 -5 -13 -15 -15
-44 -11 l-37 6 28 -22 c15 -13 27 -28 27 -35 0 -8 8 -10 24 -6 16 4 25 1 29
-10 4 -9 13 -16 22 -16 8 0 15 -4 15 -10 0 -5 7 -10 15 -10 8 0 15 -5 15 -11
0 -6 13 3 29 20 32 34 52 39 71 16 11 -13 8 -15 -14 -15 -23 0 -25 -3 -17 -19
13 -23 5 -29 -66 -59 -28 -12 -71 -22 -95 -22 -32 0 -46 -5 -56 -20 -16 -26
-36 -26 -29 1 7 25 -11 33 -46 20 -22 -9 -27 -8 -27 5 0 9 9 18 20 21 11 3 20
9 20 14 0 5 7 6 15 3 8 -4 15 -1 15 5 0 6 6 11 13 11 7 0 13 9 14 21 2 19 -2
20 -32 15 -21 -4 -35 -2 -37 5 -3 9 -10 9 -28 -1 -16 -8 -25 -9 -28 -2 -2 6
-14 5 -33 -5 -29 -14 -32 -14 -54 7 -24 22 -25 50 -2 32 13 -10 53 -10 63 1 4
4 0 7 -9 7 -17 0 -33 18 -23 27 3 3 11 1 18 -4 7 -6 23 -13 35 -15 27 -7 39
17 15 32 -14 9 -12 10 10 6 14 -3 33 -9 42 -12 9 -3 16 -1 16 5 0 6 -4 11 -10
11 -5 0 -10 5 -10 10 0 6 15 10 34 10 19 0 38 5 41 10 4 6 -7 10 -24 10 -21 0
-31 5 -31 15 0 20 -12 19 -42 -4 -13 -11 -38 -23 -54 -26 -21 -5 -25 -4 -14 4
21 15 5 24 -18 10 -16 -10 -24 -9 -51 10 -18 13 -31 25 -29 26 2 2 28 6 58 8
54 4 85 27 36 27 -14 0 -26 5 -26 10 0 6 5 10 12 10 6 0 8 3 4 7 -3 4 4 13 16
20 21 11 22 12 3 13 -18 1 -19 1 -2 11 9 5 17 17 17 25 0 11 -10 9 -46 -12
-42 -25 -47 -25 -62 -11 -14 15 -14 17 1 23 29 11 19 24 -13 18 -21 -5 -30 -3
-30 6 0 22 -30 -10 -31 -34 -1 -18 -2 -18 -6 -3 -3 10 -2 30 1 43 6 22 10 24
49 17 39 -6 41 -5 28 11 -12 14 -11 20 8 40 24 26 12 48 -14 26 -12 -10 -18
-10 -30 0 -16 13 -20 7 -27 -34 -2 -11 -9 -21 -15 -24 -24 -7 -14 51 13 79 14
15 24 33 22 40 -3 9 -10 7 -23 -9 -28 -32 -35 -27 -35 24 0 32 -4 44 -12 41
-9 -2 -12 -18 -10 -45 4 -48 -2 -51 -35 -20 -22 21 -23 21 -23 2 0 -11 11 -30
25 -42 14 -13 25 -33 25 -47 0 -27 -18 -34 -25 -10 -3 8 -7 22 -10 31 -4 12
-9 13 -18 5 -10 -8 -19 -7 -34 4 -18 13 -22 13 -27 0 -3 -8 4 -21 15 -29 15
-10 19 -20 14 -35 -7 -24 5 -27 35 -9 25 16 38 4 45 -42 4 -28 4 -31 -4 -14
-13 29 -31 40 -41 24 -4 -7 -16 -9 -29 -5 -12 4 -21 2 -21 -4 0 -6 7 -11 15
-11 24 0 17 -19 -10 -26 -16 -4 -37 1 -60 15 -34 20 -35 20 -35 1 0 -11 6 -20
13 -21 10 0 10 -2 0 -6 -20 -8 -15 -23 7 -23 11 0 20 -2 20 -4 0 -2 3 -11 6
-20 4 -12 0 -16 -15 -16 -12 0 -21 -6 -21 -13 0 -10 16 -13 55 -13 50 1 54 -1
48 -19 -5 -17 -4 -18 11 -6 14 11 16 11 16 -3 0 -12 5 -14 24 -6 25 9 36 5 36
-16 0 -7 -18 -16 -43 -19 -41 -6 -59 -2 -131 33 -5 3 -6 -3 -2 -13 5 -15 2
-16 -21 -10 -16 3 -35 13 -44 21 -20 18 -35 18 -43 -1 -3 -8 -17 -15 -31 -15
-14 0 -25 -4 -25 -10 0 -5 18 -10 41 -10 36 0 40 -2 34 -21 -7 -20 -6 -20 24
-5 39 21 44 20 29 -4 -18 -28 -5 -33 37 -15 21 8 40 13 43 11 7 -8 -9 -26 -24
-26 -8 0 -14 -4 -14 -9 0 -10 39 -9 55 1 6 3 26 9 45 13 19 4 43 17 52 28 l18
22 0 -22 c0 -49 -128 -101 -180 -73 -18 10 -21 9 -15 -1 8 -12 -8 -11 -47 6
-13 5 -18 2 -18 -9 0 -12 -7 -14 -29 -10 -16 4 -32 1 -35 -5 -4 -6 -2 -11 4
-11 6 0 8 -4 5 -10 -3 -5 1 -10 9 -10 9 0 16 -5 16 -11 0 -6 7 -9 15 -5 8 3
15 1 15 -4 0 -5 9 -10 20 -12 34 -5 18 -23 -18 -20 -30 3 -32 1 -26 -21 7 -30
-9 -43 -26 -22 -15 18 -30 19 -30 2 0 -9 -11 -12 -36 -9 -26 3 -35 1 -30 -7 4
-6 16 -11 27 -11 10 0 19 -4 19 -10 0 -5 9 -10 19 -10 11 0 21 -5 23 -11 2 -6
16 -11 32 -11 15 0 30 -6 33 -14 2 -7 20 -25 39 -39 29 -22 38 -25 52 -15 9 7
4 1 -11 -14 -31 -28 -91 -35 -129 -15 -15 8 -22 8 -28 -1 -4 -6 -16 -11 -26
-10 -42 5 -46 1 -27 -25 10 -13 24 -25 31 -25 6 0 12 -5 12 -11 0 -6 9 -8 20
-4 11 4 20 2 20 -4 0 -6 10 -11 21 -11 18 0 19 -2 9 -15 -14 -17 -57 -20 -80
-5 -9 5 -19 5 -27 -1 -6 -6 -22 -8 -35 -4 l-23 7 25 -23 c13 -13 32 -22 42
-21 10 2 18 -2 18 -7 0 -6 5 -11 11 -11 6 0 17 -7 25 -15 13 -13 18 -12 44 6
20 15 34 19 47 14 16 -8 16 -9 -5 -13 -18 -3 -21 -6 -12 -17 9 -11 4 -17 -27
-31 -21 -9 -62 -19 -91 -22 -32 -3 -56 -10 -59 -18 -3 -8 -18 -14 -35 -14 -17
0 -27 -4 -23 -10 3 -5 15 -10 27 -10 13 0 18 -5 15 -14 -6 -16 71 -40 97 -30
11 4 16 1 16 -10 0 -22 36 -21 49 1 5 10 12 15 16 11 4 -3 20 -2 36 2 17 5 40
5 51 1 18 -6 7 -12 -56 -32 -65 -20 -73 -25 -50 -29 15 -3 27 -9 27 -15 -3
-17 -44 -23 -165 -24 -72 -1 -118 -5 -118 -11 0 -5 5 -10 10 -10 14 0 12 -27
-2 -33 -8 -3 -6 -6 5 -6 9 -1 17 -5 17 -9 0 -14 45 -8 57 7 11 14 12 14 13 0
0 -24 46 -45 64 -30 12 10 16 5 21 -34 8 -48 0 -69 -15 -45 -6 10 -10 11 -10
3 0 -7 -12 -11 -30 -10 -16 1 -30 8 -30 15 0 17 -17 15 -24 -3 -3 -8 -12 -15
-21 -15 -8 0 -15 -4 -15 -10 0 -5 -7 -10 -15 -10 -10 0 -17 14 -21 41 l-7 41
-26 -63 c-14 -34 -31 -64 -37 -66 -15 -5 -31 35 -40 103 l-7 59 -13 -58 c-13
-56 -43 -124 -44 -99 0 6 -7 12 -15 12 -20 0 -19 25 6 105 49 160 60 253 65
580 4 261 3 318 -10 360 -18 58 -20 95 -6 95 6 0 13 0 18 0 4 1 9 -14 12 -31
6 -38 30 -52 30 -17 0 13 5 30 10 38 7 12 11 12 22 2 9 -9 12 -40 10 -102 -1
-49 2 -91 6 -94 11 -6 38 61 47 114 3 19 -1 84 -10 144 -20 145 -20 278 1 318
10 20 14 42 9 64 -4 23 -1 41 10 56 21 30 19 42 -11 88 -14 21 -23 43 -20 49
3 5 0 22 -8 38 -28 55 -37 127 -30 230 8 126 -9 196 -60 241 -39 34 -72 46
-173 62 -81 13 -104 30 -84 62 29 47 -14 280 -61 331 -37 39 -92 60 -135 53
-51 -9 -143 -58 -143 -75 0 -8 -9 -25 -21 -37 -16 -17 -18 -26 -10 -41 5 -11
7 -29 4 -41 -3 -12 2 -33 10 -46 9 -13 22 -46 28 -73 6 -26 21 -58 31 -70 33
-36 20 -57 -39 -64 -67 -9 -130 -44 -165 -94 -22 -32 -32 -66 -48 -163 -21
-124 -51 -223 -76 -253 -8 -8 -14 -21 -14 -27 0 -6 -15 -27 -32 -47 -24 -25
-33 -45 -34 -73 -3 -86 -66 -233 -137 -324 -23 -28 -31 -52 -36 -100 -5 -48
-17 -79 -46 -130 -22 -37 -45 -67 -50 -68 -14 0 -87 75 -80 82 9 9 -72 152
-102 179 -15 14 -49 33 -74 43 -31 11 -49 24 -52 38 -7 27 17 86 38 94 26 10
42 54 50 136 7 84 -5 123 -47 152 -24 17 -158 23 -158 7 0 -5 -13 -11 -29 -14
-65 -13 -80 -178 -27 -281 45 -86 33 -111 -69 -146 -74 -25 -101 -43 -119 -78
-18 -35 -39 -177 -31 -209 6 -27 -17 -159 -41 -232 -8 -23 -21 -97 -28 -163
-8 -66 -19 -125 -24 -130 -17 -17 -48 30 -71 109 -12 41 -29 86 -38 99 -8 14
-25 60 -38 103 -19 70 -20 82 -8 105 11 21 12 34 3 61 -12 37 -52 75 -78 75
-9 0 -33 12 -54 27 l-38 26 20 19 c17 16 20 28 16 66 -3 26 -8 73 -11 106 -10
106 -61 155 -149 142 -73 -11 -86 -40 -86 -188 l0 -117 -30 -16 c-16 -8 -43
-15 -60 -15 -30 0 -80 -37 -80 -59 0 -22 -67 -32 -175 -25 -151 8 -185 18
-185 50 0 17 -18 44 -55 83 -61 65 -84 118 -111 258 -8 46 -24 110 -35 141
-41 117 -59 220 -59 333 0 141 -12 171 -84 204 -28 13 -59 26 -68 29 -16 5
-15 11 10 63 15 32 41 81 57 108 40 68 47 168 16 219 -32 52 -112 99 -177 104
-101 8 -170 -39 -234 -158 -14 -27 -40 -133 -46 -190 -12 -115 -6 -104 -67
-116 -95 -19 -106 -24 -122 -48 -9 -13 -36 -107 -61 -208 -24 -100 -51 -201
-59 -223 -9 -25 -16 -100 -19 -205 -4 -133 -10 -185 -31 -270 -20 -81 -24
-110 -15 -128 5 -13 10 -37 10 -55 0 -37 13 -62 28 -53 5 3 15 -1 22 -9 23
-28 28 -5 8 37 -11 23 -23 59 -25 79 -6 39 12 62 22 29 3 -11 10 -20 14 -20
13 0 22 92 15 151 -4 45 1 75 32 174 20 66 40 152 44 190 5 46 19 94 41 140
l33 70 7 -45 c20 -128 30 -246 24 -283 -21 -131 -119 -498 -155 -581 -25 -58
-22 -62 61 -71 l57 -7 17 -71 c9 -40 21 -121 26 -182 17 -214 36 -277 118
-385 47 -62 58 -90 42 -117 -9 -16 -10 -15 -11 7 l-1 25 -13 -25 c-8 -14 -19
-43 -26 -65 -15 -51 -41 -56 -62 -13 l-14 31 -21 -54 c-21 -54 -21 -54 -32
-26 -7 18 -7 35 -1 53 6 14 10 28 10 31 0 12 -40 -30 -45 -48 -9 -27 -22 -15
-29 26 -10 49 -20 38 -36 -39 -7 -37 -19 -66 -25 -66 -7 0 -24 9 -39 21 -19
15 -26 30 -26 54 0 19 5 37 10 40 19 12 11 26 -9 15 -23 -12 -53 -14 -35 -2 7
4 -38 7 -100 8 -83 1 -121 5 -151 19 -22 9 -34 19 -27 22 6 3 12 11 12 19 0
16 16 19 25 4 5 -8 11 -8 19 -1 7 6 16 8 19 4 4 -3 7 0 7 7 0 11 3 11 12 2 17
-17 38 -15 38 3 0 18 12 19 27 4 14 -14 53 9 53 31 0 12 2 12 16 -2 21 -21 91
-3 72 19 -8 10 -7 17 7 27 16 11 -3 14 -124 18 -107 4 -145 9 -152 19 -6 10
-1 15 19 19 26 5 25 6 -18 22 -25 9 -55 19 -67 23 -13 3 -23 10 -23 14 0 10
61 8 77 -2 6 -4 13 -1 15 5 3 8 9 4 17 -10 13 -24 51 -30 51 -8 0 9 10 14 28
14 49 -1 91 12 85 28 -3 9 2 14 15 14 12 0 24 5 27 10 3 6 -4 10 -18 10 -14 0
-30 7 -37 15 -7 8 -27 15 -45 15 -28 0 -60 9 -134 35 -11 4 -11 8 -1 20 10 13
9 15 -11 15 -18 0 -20 3 -11 12 10 10 19 9 43 -5 34 -19 59 -22 59 -7 0 6 7
10 15 10 8 0 15 5 15 11 0 5 8 9 18 7 10 -1 29 7 42 20 l24 22 -25 0 c-13 0
-31 0 -39 0 -8 0 -31 -3 -51 -6 -25 -4 -39 -1 -48 10 -12 14 -10 16 8 16 11 0
21 5 21 11 0 6 8 8 19 4 12 -3 21 0 25 10 3 9 9 14 13 12 5 -3 16 6 26 18 18
26 8 41 -20 31 -8 -4 -21 -2 -27 3 -8 7 -24 7 -48 -1 -46 -14 -100 -3 -124 25
-10 12 -12 17 -5 10 11 -10 20 -8 45 10 17 11 37 30 45 40 7 10 19 16 27 13 8
-3 14 0 14 5 0 6 9 9 20 6 11 -3 18 -1 14 4 -3 5 4 9 15 9 12 0 21 4 21 9 0 5
10 11 22 13 12 2 23 9 26 15 2 9 -5 11 -28 6 -22 -4 -35 -2 -41 8 -6 11 -11
11 -21 1 -22 -22 -41 -15 -34 14 7 26 6 27 -28 21 -19 -3 -37 -3 -40 0 -10 10
15 32 30 26 8 -3 14 0 14 7 0 7 7 10 15 6 8 -3 15 -1 15 4 0 6 6 10 13 10 7 0
13 9 14 21 2 18 -3 20 -28 17 -20 -3 -29 0 -29 10 0 10 -6 12 -17 7 -39 -16
-56 -18 -49 -7 9 15 1 15 -23 1 -39 -25 -171 33 -171 75 0 19 1 19 22 -1 13
-12 38 -24 55 -28 18 -3 35 -10 38 -14 2 -5 16 -6 30 -3 26 4 26 5 5 19 -11 8
-18 19 -14 24 4 7 12 5 22 -4 10 -8 26 -17 36 -21 26 -9 39 14 18 32 -15 12
-15 13 6 8 48 -13 66 -16 55 -10 -24 11 -13 23 22 26 38 3 49 23 12 23 -13 0
-23 8 -25 18 -3 15 -8 14 -46 -8 -40 -24 -102 -38 -66 -15 31 19 1 19 -44 -1
-38 -16 -55 -19 -84 -12 -44 11 -52 40 -9 35 15 -1 27 2 27 7 0 6 8 7 17 4 12
-5 15 -2 11 8 -4 11 6 14 48 14 56 0 71 14 33 31 -20 9 -21 11 -5 27 10 9 22
15 27 12 5 -4 9 -1 9 4 0 6 -5 11 -12 11 -9 0 -9 3 0 12 7 7 12 18 12 26 0 10
-9 8 -35 -8 -23 -14 -44 -20 -59 -16 -18 4 -28 0 -40 -19 -9 -14 -26 -25 -38
-25 -20 0 -21 1 -3 20 10 11 23 20 29 20 12 0 56 43 56 54 0 4 -9 2 -19 -4
-15 -8 -22 -7 -28 4 -9 17 -25 10 -41 -19 -11 -20 -11 -20 -12 1 0 11 6 29 14
40 13 16 18 17 35 7 31 -19 43 -16 36 8 -5 14 0 27 14 40 24 22 19 48 -5 28
-7 -6 -19 -9 -26 -6 -7 2 -17 6 -23 8 -5 2 -12 -9 -15 -25 -7 -41 -30 -46 -30
-7 0 22 7 35 25 47 14 9 25 26 25 37 0 20 0 20 -24 -2 -29 -27 -41 -15 -32 35
6 27 4 34 -9 34 -11 0 -15 -11 -15 -47 l0 -46 -23 21 c-13 12 -26 22 -30 22
-16 0 -5 -28 18 -50 16 -15 25 -34 25 -53 0 -32 -23 -33 -28 -1 -7 42 -11 47
-28 34 -11 -10 -18 -10 -26 -2 -28 28 -39 1 -12 -30 14 -15 15 -20 3 -34 -13
-16 -11 -17 25 -10 43 8 56 -2 55 -44 0 -15 -3 -19 -6 -10 -11 31 -25 41 -39
29 -7 -6 -23 -8 -36 -3 -22 6 -22 6 -6 -13 16 -18 16 -19 -1 -30 -15 -9 -25
-7 -56 14 -40 27 -57 24 -37 -7 10 -16 10 -20 0 -21 -7 0 -3 -5 9 -11 32 -16
36 -35 7 -42 -37 -10 -20 -25 37 -32 l51 -7 -25 -24 c-21 -22 -28 -23 -47 -13
-25 13 -42 4 -20 -10 13 -8 13 -10 -1 -10 -9 0 -33 11 -53 25 -42 29 -56 31
-56 10 0 -11 -8 -13 -31 -8 -25 5 -31 3 -27 -8 2 -8 21 -15 41 -17 36 -3 49
-16 25 -25 -7 -2 -10 -7 -6 -11 3 -4 19 -1 36 8 33 17 51 10 24 -10 -16 -12
-16 -13 2 -20 12 -5 30 -1 48 9 24 14 28 14 28 1 0 -8 -10 -19 -22 -25 -23
-10 -23 -10 -1 -5 12 2 24 -1 26 -8 3 -8 8 -8 18 2 7 6 20 12 28 12 10 0 6 -9
-14 -30 -27 -28 -29 -28 -61 -15 -24 10 -34 11 -37 2 -3 -9 -8 -8 -20 2 -10 8
-24 10 -34 6 -10 -4 -29 -7 -43 -6 -20 2 -26 -3 -26 -18 0 -12 6 -21 13 -21 7
0 13 -5 13 -11 0 -6 7 -9 15 -5 8 3 15 2 15 -3 0 -5 9 -11 20 -14 38 -10 22
-28 -19 -21 -37 6 -38 5 -34 -20 7 -33 -13 -35 -28 -2 -9 20 -18 23 -62 23
-35 0 -71 9 -110 27 -51 23 -57 28 -47 45 15 29 13 32 -17 25 -25 -7 -27 -6
-14 9 19 24 44 21 70 -7 21 -22 61 -26 61 -6 0 4 9 10 20 13 11 3 20 12 20 21
0 13 4 15 19 6 25 -13 31 -13 31 2 0 7 12 23 28 35 l27 23 -37 -6 c-30 -5 -39
-3 -44 10 -6 16 -8 16 -25 0 -18 -16 -78 -22 -98 -9 -6 3 -11 13 -11 22 0 11
7 14 26 10 22 -4 25 -1 21 15 -4 14 -2 18 9 14 8 -3 21 -9 29 -12 10 -4 15 0
15 15 0 14 5 19 15 15 9 -4 17 1 21 12 4 11 14 27 22 36 13 16 13 18 -2 24 -9
3 -27 3 -40 0 -18 -4 -28 -1 -35 11 -7 14 -12 15 -24 5 -8 -7 -34 -15 -59 -18
-51 -7 -112 15 -129 48 -9 17 -8 18 9 7 17 -11 25 -8 53 15 19 16 40 40 47 53
10 19 20 24 38 20 13 -2 21 0 18 4 -3 5 7 9 21 9 15 0 24 4 20 10 -4 6 5 10
19 10 16 0 26 6 26 15 0 8 8 15 18 15 19 0 42 18 42 33 0 4 -21 5 -47 1 -40
-6 -45 -5 -40 10 9 23 -12 20 -40 -5 -21 -21 -23 -21 -29 -4 -4 10 -2 26 4 36
15 24 0 33 -43 25 -18 -4 -36 -2 -39 3 -9 15 23 41 41 34 11 -4 14 -3 9 5 -5
8 0 12 13 12 12 0 21 5 21 10 0 6 9 10 19 10 15 0 18 5 13 22 -4 15 -2 19 8
13 8 -5 11 -3 8 6 -4 9 -19 13 -47 12 -30 -1 -41 2 -41 13 0 18 -14 18 -51 -2
-30 -15 -31 -15 -24 5 l6 21 -36 -21 c-35 -21 -37 -21 -82 -4 -57 22 -123 80
-123 109 0 20 1 19 25 -7 14 -15 34 -27 45 -27 10 0 22 -5 25 -10 4 -6 11 -7
17 -4 6 4 17 -1 25 -12 11 -16 15 -17 23 -5 7 12 11 12 23 2 9 -7 18 -8 21 -3
3 6 -5 17 -19 26 -14 9 -25 23 -25 31 0 20 10 19 34 -4 12 -11 33 -22 47 -26
21 -5 27 -2 31 13 4 15 0 22 -15 26 -17 4 -19 8 -10 17 9 9 19 6 41 -10 17
-11 33 -21 36 -21 11 0 6 28 -6 32 -26 9 4 26 37 21 35 -6 70 11 59 28 -3 5
-21 9 -40 9 -27 0 -34 4 -34 20 0 27 -12 25 -48 -5 -17 -14 -45 -27 -64 -30
-18 -3 -27 -3 -20 1 13 6 17 34 5 34 -5 0 -26 -12 -48 -25 -63 -39 -165 -33
-165 11 0 27 15 40 27 22 11 -18 43 -19 43 -2 0 11 5 12 19 5 26 -14 34 -1 14
22 -17 18 -17 19 20 12 24 -5 42 -3 52 5 12 10 18 10 31 -1 13 -10 17 -10 24
1 11 18 -6 40 -31 40 -11 0 -19 5 -19 10 0 6 5 10 11 10 6 0 9 7 5 15 -4 11 1
15 19 15 16 0 25 6 25 15 0 8 -7 15 -16 15 -13 0 -11 4 6 18 12 10 21 26 19
35 -4 15 -10 13 -49 -13 -45 -30 -80 -39 -80 -20 0 6 -8 10 -17 10 -14 1 -12
6 11 24 19 16 24 26 17 31 -7 4 -18 1 -26 -5 -16 -14 -35 -5 -35 16 0 28 -21
13 -41 -28 l-20 -43 5 44 c2 24 11 50 19 58 12 12 18 11 45 -4 36 -20 52 -11
33 19 -11 18 -9 24 13 47 25 26 35 61 17 61 -5 0 -14 -7 -21 -15 -16 -19 -36
-19 -44 1 -8 22 -26 7 -26 -22 0 -29 -16 -64 -30 -64 -6 0 -10 17 -10 37 0 27
8 45 29 68 30 31 49 75 33 75 -4 0 -19 -11 -32 -25 -13 -14 -28 -25 -33 -25
-5 0 -7 28 -6 63 3 50 1 62 -11 62 -11 0 -14 -10 -12 -39 2 -22 1 -51 -3 -64
l-6 -25 -35 34 c-30 29 -34 31 -34 12 0 -11 13 -37 30 -58 22 -27 30 -49 30
-76 0 -22 -4 -39 -10 -39 -14 0 -30 35 -30 64 0 31 -16 42 -29 19 -9 -17 -11
-16 -35 6 -23 22 -26 22 -32 7 -4 -11 2 -29 16 -48 19 -25 21 -35 11 -49 -6
-10 -11 -21 -11 -24 0 -10 40 -5 60 7 28 18 41 0 47 -59 l4 -48 -15 38 c-19
51 -25 56 -42 32 -12 -16 -18 -18 -34 -7 -25 15 -30 15 -30 -2 0 -7 10 -21 23
-29 18 -13 19 -16 5 -16 -10 -1 -18 -5 -18 -11 0 -19 -32 -10 -70 20 -21 17
-43 30 -49 30 -19 0 -12 -28 10 -43 l21 -15 -21 -7 c-25 -8 -18 -25 10 -25 12
0 19 -7 19 -19 0 -11 6 -21 13 -24 6 -2 -3 -7 -20 -11 -23 -5 -33 -13 -33 -27
0 -16 5 -18 25 -13 15 4 32 1 40 -6 9 -8 27 -10 46 -6 l30 6 -20 -29 c-37 -52
-49 -57 -76 -31 -29 27 -45 19 -26 -12 11 -18 11 -20 -4 -14 -9 3 -21 6 -26 6
-5 0 -27 16 -48 35 -29 27 -41 33 -48 23 -4 -7 -8 -17 -8 -23 0 -5 -17 -8 -37
-7 -21 2 -38 0 -38 -5 0 -19 26 -33 61 -33 43 0 58 -14 32 -29 -33 -18 -3 -25
33 -7 39 18 60 13 31 -8 -9 -7 -17 -21 -17 -31 0 -14 6 -16 32 -11 17 3 39 13
48 21 21 19 30 19 30 0 0 -9 -11 -21 -25 -27 -32 -15 -32 -32 0 -24 16 4 25 2
25 -5 0 -8 6 -7 18 3 9 8 25 15 34 15 13 0 8 -10 -19 -44 -32 -39 -53 -57 -38
-33 3 6 -2 10 -11 10 -10 0 -28 10 -41 22 l-23 21 0 -22 0 -23 -34 22 c-34 20
-34 20 -41 1 -5 -17 -10 -18 -30 -9 -34 15 -54 5 -48 -26 3 -14 12 -26 19 -26
8 0 14 -7 14 -16 0 -11 6 -14 20 -9 14 4 20 2 20 -8 0 -8 7 -14 16 -13 18 1
42 -29 32 -40 -4 -3 -21 -1 -39 5 -32 11 -73 1 -50 -13 13 -9 15 -43 2 -51 -5
-3 -22 7 -36 21 -22 22 -29 24 -36 13 -7 -11 -9 -11 -9 4 0 21 19 22 49 1 23
-16 23 -16 11 6 -13 24 -2 39 28 40 6 0 12 5 12 10 0 6 -7 10 -15 10 -8 0 -15
7 -15 15 0 9 -9 15 -21 15 -14 0 -19 5 -16 15 4 8 2 17 -3 20 -29 18 27 63 57
47 13 -8 20 -6 29 6 10 13 16 14 37 5 20 -10 26 -9 31 2 3 9 12 12 22 8 12 -4
15 -3 10 5 -4 7 -18 12 -32 12 -18 0 -24 5 -24 21 0 18 -4 20 -31 14 -31 -7
-31 -6 -27 24 4 28 2 30 -19 25 -28 -7 -63 19 -63 48 0 14 8 18 34 18 25 0 35
5 39 20 8 29 36 24 75 -12 31 -31 34 -32 46 -15 16 21 34 22 58 1 14 -14 20
-14 33 -4 8 7 15 17 15 23 0 6 -3 7 -6 4 -4 -3 -16 -1 -28 5 -11 7 -33 11 -48
9 -37 -3 -50 37 -19 57 26 18 27 38 2 45 -14 3 -18 14 -18 46 0 23 -4 46 -9
50 -5 5 -43 16 -84 26 -41 10 -103 29 -137 42 l-61 24 -7 112 c-11 181 24 657
62 840 l8 38 39 -65 c21 -36 41 -66 46 -66 18 0 145 108 163 138 l20 34 -54
54 -53 54 -43 -49 c-38 -43 -96 -81 -108 -69 -2 2 6 51 19 107 18 81 28 108
47 121 20 16 21 20 10 34 -17 20 -2 82 67 281 53 155 60 170 124 255 89 120
105 135 175 173 l70 37 7 -27 c7 -34 19 -49 74 -92 l42 -33 -6 -76 c-6 -77 -5
-77 33 -134 21 -32 57 -71 79 -88 23 -16 46 -42 52 -57 5 -16 17 -48 26 -73 9
-25 30 -61 46 -80 l29 -35 7 42 c6 41 7 42 30 26 24 -15 24 -15 24 21 0 35 1
36 39 36 42 0 43 1 56 68 4 17 10 32 13 32 19 0 72 -42 72 -57 0 -10 -14 -61
-31 -114 l-32 -97 30 -43 c17 -24 37 -58 46 -75 13 -25 27 -33 76 -47 33 -9
65 -17 71 -17 6 0 10 28 10 67 l0 68 26 -38 c29 -43 31 -42 53 9 l16 36 60
-47 c67 -53 112 -75 150 -75 25 0 23 4 -35 71 -46 53 -58 74 -49 80 11 6 7 28
-19 108 l-33 100 -65 48 c-35 26 -61 50 -57 54 5 4 61 41 126 83 120 76 215
112 237 90 6 -6 21 -46 33 -90 22 -77 24 -80 68 -101 35 -16 50 -31 62 -60 15
-39 52 -78 119 -128 l38 -27 -34 93 c-19 52 -46 125 -60 163 -14 37 -26 72
-26 77 0 5 40 9 89 9 l90 0 93 100 c105 114 110 121 132 210 20 79 54 130 182
279 l98 114 72 -149 c39 -82 80 -157 90 -166 11 -9 37 -23 59 -30 41 -14 51
-27 81 -112 11 -32 38 -71 79 -114 l62 -66 33 38 34 38 28 -69 28 -68 -3 121
c-3 117 -4 123 -35 171 -38 60 -72 153 -72 200 0 21 30 103 76 208 l76 174
167 163 c160 158 169 170 261 321 52 86 98 157 101 157 3 0 29 -78 58 -172z
m-3362 -3220 c24 -22 31 -48 13 -48 -14 0 -60 46 -60 60 0 17 22 11 47 -12z
m173 13 c0 -16 -41 -61 -56 -61 -23 0 -16 27 12 49 28 22 44 27 44 12z m6971
-40 c20 -24 20 -26 3 -30 -17 -3 -64 40 -64 59 0 16 41 -3 61 -29z m159 30 c0
-16 -41 -61 -56 -61 -21 0 -17 18 11 45 24 25 45 32 45 16z m-7321 -171 c9 0
22 5 28 11 8 8 13 5 18 -10 3 -11 4 -25 1 -30 -8 -13 -71 -23 -100 -15 l-25 6
27 34 c19 24 28 30 30 19 2 -8 11 -15 21 -15z m7309 -5 c5 21 14 18 40 -15
l22 -29 -21 -6 c-11 -4 -41 -4 -65 0 -43 6 -51 16 -38 48 5 13 9 13 32 1 24
-12 27 -12 30 1z m-5074 -136 c14 -46 30 -113 37 -148 8 -41 35 -108 74 -185
35 -67 70 -144 78 -172 8 -28 20 -60 26 -70 5 -11 13 -49 16 -86 8 -78 34
-117 36 -52 l1 39 12 -28 c7 -16 26 -40 41 -53 l29 -25 13 26 c16 30 9 29 108
6 136 -32 165 -33 226 -13 37 14 67 17 94 13 37 -6 40 -9 47 -46 13 -73 9
-183 -8 -225 -9 -22 -14 -47 -10 -55 3 -8 -2 -31 -11 -52 -23 -56 -12 -146 49
-384 44 -176 50 -209 39 -223 -7 -9 -22 -16 -32 -16 -17 0 -18 5 -12 43 l6 42
-26 -30 c-23 -26 -26 -28 -27 -10 0 15 -6 11 -24 -18 -13 -21 -27 -38 -31 -39
-4 0 -16 13 -26 29 l-19 28 6 -40 6 -40 -26 28 c-21 23 -26 25 -26 10 0 -10
-9 -24 -20 -31 -18 -11 -20 -10 -20 10 0 21 -2 21 -21 -7 l-20 -30 6 40 c5 37
4 38 -6 13 -16 -42 -28 -34 -31 25 l-4 52 -8 -44 -9 -44 -12 29 -11 29 -7 -33
c-8 -37 -27 -35 -27 4 0 13 -4 24 -9 24 -5 0 -17 17 -27 38 l-19 37 -3 -57
c-3 -57 -3 -57 -22 -38 -11 11 -20 25 -20 32 0 6 -11 1 -25 -12 l-25 -23 -11
33 -12 32 -12 -29 c-7 -17 -20 -33 -28 -36 -13 -5 -18 4 -23 41 l-8 47 -8 -35
c-5 -20 -20 -49 -33 -65 l-25 -30 -25 28 c-20 23 -25 39 -26 85 l-1 57 -28
-85 c-15 -47 -28 -79 -29 -72 -1 7 -6 10 -12 6 -14 -8 -28 14 -30 46 0 21 -3
19 -19 -16 -24 -55 -38 -62 -51 -27 -7 19 -7 34 1 52 18 39 6 34 -30 -14 -18
-25 -35 -43 -37 -41 -2 2 10 53 28 112 36 120 40 182 25 389 -8 110 0 167 44
336 l10 36 100 13 c85 11 100 16 94 29 -3 9 -37 104 -75 211 -39 107 -86 227
-106 265 -20 39 -47 90 -60 115 -40 77 -40 133 -3 244 18 54 34 95 36 93 2 -2
15 -42 28 -88z m5276 -29 c0 -6 11 -5 26 2 21 10 28 9 38 -2 6 -9 24 -14 42
-12 35 3 65 -21 46 -40 -6 -6 -8 -17 -5 -24 3 -9 -2 -14 -16 -14 -12 0 -21 -6
-21 -15 0 -8 -7 -15 -15 -15 -24 0 -17 -17 10 -24 25 -6 34 -29 15 -41 -5 -3
-10 -11 -10 -18 0 -6 6 -2 14 9 8 10 17 17 19 14 3 -3 -3 -16 -13 -30 -15 -20
-21 -23 -32 -12 -10 10 -10 17 0 32 19 31 15 33 -38 26 -53 -7 -56 -6 -39 25
7 14 16 18 30 14 15 -5 17 -3 12 11 -5 13 -2 15 15 9 16 -5 22 -2 22 9 0 9 6
16 14 16 17 0 29 41 16 54 -7 7 -20 7 -39 0 -22 -9 -30 -8 -37 4 -9 13 -13 13
-41 -1 -30 -16 -31 -16 -36 8 -3 17 0 25 9 25 8 0 14 -4 14 -10z m-2498 -58
c7 -51 -9 -251 -26 -347 -8 -44 -17 -104 -20 -133 -5 -48 -3 -54 18 -63 22
-10 23 -17 30 -162 3 -84 11 -184 16 -224 5 -39 16 -187 25 -329 9 -141 20
-279 25 -307 12 -62 12 -76 0 -57 -8 13 -10 12 -10 -3 0 -24 -28 -77 -40 -77
-16 0 -22 44 -11 75 l11 30 -25 -30 c-14 -16 -25 -33 -25 -37 0 -22 -18 -3
-32 35 l-17 42 0 -37 c-1 -21 -7 -58 -13 -84 -12 -45 -13 -45 -48 -39 -40 8
-70 31 -70 54 0 9 12 34 26 55 23 33 24 37 7 34 -10 -1 -37 -32 -60 -66 l-43
-64 0 44 c-1 37 -2 41 -14 26 -11 -16 -14 -14 -30 20 l-18 37 -13 -39 c-18
-52 -54 -89 -72 -75 -10 9 -13 5 -13 -21 l0 -33 -22 19 c-21 19 -21 19 -13 -1
4 -11 10 -31 13 -45 5 -22 3 -24 -11 -11 -9 7 -22 40 -29 72 -12 57 -12 58
-23 31 l-12 -27 -16 30 -17 30 7 -44 c7 -51 -7 -50 -28 1 l-14 33 -11 -60 c-8
-40 -12 -50 -13 -29 -1 16 -12 95 -25 175 -13 79 -27 194 -31 254 -3 61 -16
166 -27 235 -24 141 -25 149 -34 353 -8 176 -12 173 109 92 45 -30 89 -55 99
-55 34 0 87 92 117 208 7 23 16 42 21 42 16 0 86 75 99 108 12 28 12 37 0 58
-22 42 21 105 107 156 16 10 36 22 44 27 8 6 29 16 45 23 26 12 31 20 36 66
12 93 61 117 71 34z m-4877 -92 c8 0 15 -5 15 -11 0 -6 7 -9 15 -6 8 4 17 2
19 -2 3 -5 22 -7 43 -5 21 1 43 -2 50 -8 10 -8 18 -6 31 6 28 24 44 20 40 -11
-3 -27 -5 -28 -58 -27 -85 2 -212 57 -195 85 6 8 10 7 17 -5 5 -9 16 -16 23
-16z m7065 -1 c0 -6 -30 -24 -66 -41 -82 -38 -186 -46 -192 -14 -6 27 12 40
31 22 17 -17 39 -21 51 -9 4 4 30 8 58 9 28 2 54 8 58 15 4 6 12 9 18 5 6 -3
13 3 17 14 6 20 25 19 25 -1z m-1534 -80 c20 -23 44 -119 44 -171 0 -27 -8
-63 -17 -81 l-17 -32 -18 90 c-10 50 -20 133 -23 185 -4 84 -3 91 8 59 6 -20
17 -42 23 -50z m-5996 -69 c0 -5 7 -7 15 -4 11 5 15 -1 15 -21 0 -26 2 -27 48
-23 l47 3 -2 -33 c-1 -30 1 -33 20 -28 19 4 19 2 -6 -20 -27 -23 -46 -28 -97
-24 -49 4 -39 16 13 15 l52 0 3 38 3 38 -48 -3 c-44 -3 -48 -1 -47 19 0 18 -3
20 -18 12 -15 -8 -18 -6 -18 10 0 11 -6 22 -12 24 -7 3 -3 6 10 6 12 1 22 -3
22 -9z m7945 -21 c10 -15 -26 -140 -42 -146 -21 -8 -100 25 -108 45 -5 14 -4
15 6 5 22 -22 30 -14 23 22 -6 34 -4 37 26 37 3 1 20 -2 38 -6 30 -5 33 -4 32
17 -1 12 -2 25 -1 30 2 11 19 9 26 -4z m-6704 -148 c25 -20 21 -38 -5 -28 -17
7 -41 47 -27 47 5 0 19 -9 32 -19z m5499 -12 c-13 -22 -37 -35 -48 -24 -7 7
34 45 49 45 6 0 5 -9 -1 -21z m-130 -4 c24 -29 4 -38 -25 -12 -28 24 -28 26
-9 27 12 0 27 -7 34 -15z m-5365 -101 c22 6 26 4 23 -11 -2 -14 -14 -19 -51
-21 -51 -3 -56 2 -30 30 12 13 19 15 24 7 4 -7 17 -9 34 -5z m5519 -19 l16
-25 -50 0 c-43 0 -50 3 -50 20 0 16 5 19 30 14 19 -4 30 -2 30 5 0 17 6 13 24
-14z m-1100 -87 c3 -24 10 -88 17 -143 6 -55 20 -144 30 -198 29 -149 25 -248
-22 -550 -6 -38 -15 -65 -19 -60 -19 21 -32 312 -29 645 4 323 10 410 23 306z
m-1468 -269 c-4 -150 -9 -275 -12 -280 -2 -4 0 -85 6 -180 10 -172 -1 -349
-21 -349 -5 0 -9 -12 -10 -27 0 -26 -1 -26 -9 -7 -16 41 -30 37 -30 -8 0 -24
-5 -50 -10 -58 -7 -12 -13 -6 -25 24 -13 30 -19 36 -26 25 -8 -11 -13 -10 -29
10 -11 13 -20 33 -20 45 -1 19 -2 18 -16 -7 -19 -36 -38 -30 -42 12 -3 33 -4
33 -18 12 -24 -33 -34 -25 -34 27 l-1 47 -27 -33 c-28 -33 -51 -42 -53 -19 0
6 -5 1 -10 -12 l-10 -24 -29 28 c-29 28 -30 28 -45 9 -14 -18 -16 -18 -29 -1
-10 13 -15 15 -19 5 -16 -45 10 250 34 381 22 124 24 180 5 224 -10 24 -11 55
-6 117 7 85 29 180 40 180 3 0 14 -33 25 -72 20 -79 47 -139 99 -221 19 -29
41 -73 49 -97 8 -25 27 -54 41 -64 26 -20 26 -20 49 2 14 14 29 45 36 78 7 30
28 101 47 156 19 56 34 116 34 132 0 32 57 216 67 216 3 0 3 -122 -1 -271z
m-2820 135 c46 -8 103 -9 123 -3 8 2 16 -3 18 -13 3 -9 -4 -19 -15 -22 -43
-14 -210 42 -196 65 5 9 10 7 19 -4 7 -9 29 -20 51 -23z m5264 1 c-14 -16
-129 -55 -164 -55 -32 0 -50 15 -42 35 6 17 7 17 26 0 11 -10 24 -14 32 -9 7
5 32 9 55 10 24 1 53 9 65 17 29 20 44 21 28 2z m-4315 -232 c5 -98 7 -234 6
-303 -1 -68 3 -164 9 -213 7 -62 7 -93 0 -105 -8 -13 -9 -9 -4 17 4 20 2 31
-3 28 -22 -13 -44 67 -49 172 -7 144 -11 163 -41 207 l-26 39 22 160 c21 156
28 175 62 175 14 0 17 -24 24 -177z m-1622 115 c9 2 17 -2 17 -9 0 -7 6 -4 15
7 12 16 14 17 15 2 0 -21 26 -48 46 -48 8 0 19 12 25 27 7 19 13 23 21 15 8
-8 17 -8 30 -1 10 6 28 7 38 4 11 -4 20 -2 20 3 0 5 12 12 27 15 21 4 34 -3
64 -35 27 -29 43 -39 56 -34 13 4 12 1 -6 -14 -28 -24 -93 -27 -133 -6 -16 8
-28 11 -28 5 0 -5 -16 -9 -35 -9 l-36 0 18 -24 c10 -14 25 -27 33 -30 8 -3
-20 -4 -63 -2 -55 2 -83 8 -94 19 -18 18 -18 18 42 33 l30 7 -37 7 c-20 4 -43
11 -50 17 -7 6 -32 16 -55 22 -48 13 -53 22 -20 37 15 7 25 7 32 -1 6 -6 18
-9 28 -7z m6317 -10 c0 -6 10 -8 22 -5 12 3 29 2 39 -4 12 -6 20 -5 24 1 9 15
25 2 25 -21 0 -14 7 -19 25 -19 20 0 29 8 39 31 11 27 14 28 20 13 6 -15 9
-16 15 -5 5 7 14 10 20 6 7 -4 18 -2 24 4 16 13 59 3 54 -13 -2 -6 -17 -13
-33 -17 -16 -3 -43 -13 -61 -22 -18 -9 -44 -17 -58 -17 -37 0 -23 -16 21 -25
34 -6 36 -8 20 -23 -12 -12 -37 -17 -94 -19 -42 -1 -69 0 -60 3 9 3 24 17 33
31 l17 26 -35 -6 c-22 -3 -37 -1 -39 5 -3 8 -10 7 -25 -1 -34 -18 -118 -14
-134 6 -8 9 -9 14 -3 10 6 -3 30 13 52 37 33 35 46 42 66 39 14 -3 26 -10 26
-15z m-6036 -254 c3 -9 6 -19 6 -23 0 -13 -74 -31 -128 -31 -37 0 -51 -4 -56
-16 -4 -11 -15 -15 -36 -12 -32 5 -30 -8 4 -23 17 -8 14 -8 -13 -4 -19 3 -48
14 -65 25 -28 18 -29 20 -8 20 15 0 22 6 22 20 0 24 13 26 31 4 11 -14 13 -14
21 0 5 8 15 13 23 10 9 -4 15 0 15 10 0 13 3 13 20 -4 27 -27 38 -25 32 5 -5
29 4 32 31 8 17 -16 20 -16 30 -3 7 9 20 14 30 12 9 -2 17 1 17 7 0 17 17 13
24 -5z m5966 2 c0 -3 -4 -8 -10 -11 -5 -3 -10 -1 -10 4 0 6 5 11 10 11 6 0 10
-2 10 -4z m42 -7 c2 -5 10 -11 18 -12 8 -2 21 -6 28 -11 8 -5 20 -2 31 8 24
22 31 20 31 -9 0 -29 7 -31 32 -8 11 9 18 11 18 5 0 -7 9 -12 20 -12 11 0 20
-5 20 -12 0 -6 7 -4 18 5 24 22 32 21 32 -3 0 -14 7 -20 23 -20 22 0 22 0 -3
-20 -26 -20 -100 -43 -100 -31 0 4 12 12 28 18 l27 11 -32 1 c-18 1 -36 8 -41
18 -7 12 -17 14 -42 10 -34 -7 -140 18 -140 33 0 30 24 52 32 29z m-2545 -115
c13 -49 32 -163 43 -254 19 -160 19 -165 1 -185 -10 -11 -24 -31 -31 -45 l-13
-25 -11 30 -10 30 -6 -30 -7 -30 -13 28 c-13 27 -15 28 -28 10 -13 -16 -14 -8
-8 67 3 47 10 164 16 260 12 207 17 243 33 237 7 -2 22 -44 34 -93z m-3397
-34 c13 -8 13 -10 -2 -10 -9 0 -20 5 -23 10 -8 13 5 13 25 0z m-106 -66 c26
-10 18 -24 -14 -24 -26 0 -29 2 -18 15 16 17 13 16 32 9z m-79 -14 c3 -5 2
-10 -4 -10 -5 0 -13 5 -16 10 -3 6 -2 10 4 10 5 0 13 -4 16 -10z m6165 -5 c0
-10 -10 -15 -27 -15 -27 1 -27 1 -9 15 25 19 36 19 36 0z m75 -5 c-3 -5 -11
-10 -16 -10 -6 0 -7 5 -4 10 3 6 11 10 16 10 6 0 7 -4 4 -10z m-745 -152 c8
-3 23 -1 33 4 12 6 17 5 17 -7 0 -8 8 -15 17 -15 29 0 -22 -30 -62 -37 -31 -5
-36 -3 -45 22 -8 20 -7 31 1 42 7 8 15 10 18 5 3 -5 13 -11 21 -14z m-3869
-131 c-10 -9 -11 -8 -5 6 3 10 9 15 12 12 3 -3 0 -11 -7 -18z m-1661 2 c0 -6
9 -9 20 -6 25 6 38 -11 15 -19 -10 -4 -25 2 -38 15 -12 11 -16 21 -9 21 7 0
12 -5 12 -11z m838 -14 c-3 -3 -9 2 -12 12 -6 14 -5 15 5 6 7 -7 10 -15 7 -18z
m50 5 c-14 -22 -24 -19 -15 5 4 8 11 15 17 15 6 0 6 -7 -2 -20z m2048 -35 c-9
-36 -26 -22 -26 23 0 34 1 35 16 20 11 -11 15 -25 10 -43z m-2007 33 c0 -7 -4
-22 -9 -33 -7 -17 -9 -15 -9 13 -1 17 4 32 9 32 6 0 10 -6 9 -12z m5364 -9
c-15 -16 -27 -19 -40 -13 -15 7 -14 8 10 12 15 2 27 8 27 13 0 5 6 9 12 9 7 0
3 -10 -9 -21z m-5462 -32 c-12 -12 -41 8 -41 29 0 12 5 11 26 -2 17 -11 22
-20 15 -27z m2859 -35 c0 -9 -5 -24 -10 -32 -7 -11 -10 -5 -10 23 0 23 4 36
10 32 6 -3 10 -14 10 -23z"/>
<path d="M6565 10451 c-55 -25 -76 -52 -82 -104 -7 -56 -57 -126 -121 -167
-54 -36 -92 -85 -92 -118 0 -33 24 -84 51 -109 l25 -22 40 67 c32 54 48 71 86
89 38 18 49 30 62 65 9 24 25 69 37 101 12 33 41 82 70 115 54 63 58 76 30 92
-28 15 -61 12 -106 -9z"/>
<path d="M6758 10254 c-9 -14 -148 -315 -148 -320 0 -2 11 -4 25 -4 30 0 30 0
5 -47 -35 -66 -26 -111 23 -105 21 2 54 -7 96 -27 36 -17 67 -29 69 -27 9 10
-36 82 -60 94 -20 9 -29 24 -37 63 -15 69 -13 147 5 194 36 91 47 144 37 167
-5 12 -12 18 -15 12z"/>
<path d="M5532 9891 c-23 -15 -49 -36 -56 -47 -24 -34 -38 -106 -42 -212 -3
-94 -2 -102 14 -93 30 16 59 55 72 95 l13 40 23 -29 c15 -19 27 -26 32 -20 17
19 28 70 21 100 -4 17 -7 67 -8 113 -1 93 -4 95 -69 53z"/>
<path d="M6420 9866 c-19 -14 -45 -31 -57 -37 -27 -14 -27 -17 -7 -44 15 -20
15 -20 33 4 13 16 31 25 65 28 46 6 47 7 44 37 -4 41 -33 45 -78 12z"/>
<path d="M6471 9694 c-23 -20 -41 -43 -41 -51 0 -8 -7 -27 -15 -43 -11 -21
-23 -30 -47 -32 -33 -3 -33 -3 -38 -68 -5 -66 -17 -97 -44 -120 -17 -13 -24
-120 -8 -120 4 0 21 24 39 53 53 88 139 175 185 187 22 6 43 9 46 5 3 -3 -10
-22 -30 -43 -42 -44 -58 -72 -58 -105 0 -33 8 -38 39 -25 14 6 53 20 85 32 53
19 61 25 73 60 17 51 26 61 82 92 26 14 55 38 64 54 l17 28 -34 12 c-19 6 -51
24 -72 41 -20 16 -67 38 -103 49 -36 11 -74 23 -83 26 -10 3 -32 -9 -57 -32z"/>
<path d="M3346 9522 l-69 -57 34 -13 c58 -24 113 23 107 92 l-3 35 -69 -57z"/>
<path d="M5461 9488 c-9 -24 -8 -34 1 -40 23 -15 53 -4 66 25 16 34 9 47 -28
47 -23 0 -30 -6 -39 -32z"/>
<path d="M9692 9497 c-11 -12 -31 -46 -44 -75 -17 -38 -33 -57 -58 -70 -38
-19 -49 -47 -30 -82 9 -17 19 -20 48 -18 36 3 37 4 45 57 4 30 16 68 26 85 36
58 62 126 47 126 -7 0 -22 -10 -34 -23z"/>
<path d="M9740 9339 c-56 -105 -93 -145 -138 -154 -92 -19 -109 -49 -116 -207
-5 -110 -4 -128 9 -128 11 0 15 -11 15 -37 1 -37 1 -37 17 -18 26 33 79 154
108 245 28 92 60 153 95 185 35 32 62 94 67 157 3 32 4 58 2 58 -2 0 -29 -45
-59 -101z"/>
<path d="M7825 9375 c-6 -44 -4 -59 6 -66 23 -15 48 -10 59 11 14 27 6 50 -29
84 l-29 28 -7 -57z"/>
<path d="M3357 9372 c-10 -10 -17 -33 -17 -50 0 -30 2 -32 35 -32 19 0 56 -7
82 -16 44 -15 47 -15 60 2 12 17 9 21 -37 43 -34 16 -52 31 -56 47 -8 29 -43
32 -67 6z"/>
<path d="M3246 9372 c-2 -4 -7 -23 -11 -43 -6 -35 -5 -37 24 -41 27 -4 32 -1
37 21 3 14 8 32 10 40 8 23 -47 44 -60 23z"/>
<path d="M5877 9351 c-53 -6 -58 -8 -75 -41 -11 -23 -28 -39 -49 -45 -17 -6
-51 -31 -75 -57 -37 -39 -50 -47 -93 -53 -75 -10 -150 -33 -175 -53 l-22 -18
26 -17 c25 -17 27 -16 78 12 60 34 253 101 290 101 44 0 91 21 161 72 66 49
73 60 61 92 -6 17 -21 18 -127 7z"/>
<path d="M10040 9265 c-8 -9 -9 -28 -5 -56 6 -33 14 -45 42 -61 18 -11 51 -46
73 -77 53 -77 116 -139 152 -146 16 -4 32 -5 34 -2 3 3 -10 49 -28 103 l-33
99 -100 77 c-55 42 -105 77 -111 78 -6 0 -17 -7 -24 -15z"/>
<path d="M5170 9179 l0 -31 28 17 c71 47 71 45 19 45 -46 0 -47 -1 -47 -31z"/>
<path d="M3204 9161 c-45 -20 -84 -63 -84 -92 0 -15 8 -19 40 -19 73 0 120 41
120 105 0 31 -18 32 -76 6z"/>
<path d="M9777 9156 c-18 -26 -25 -53 -31 -105 -2 -19 -13 -41 -24 -50 -11 -9
-32 -47 -47 -85 -27 -66 -27 -70 -9 -83 36 -26 64 -16 84 30 31 71 71 317 51
317 -5 0 -16 -11 -24 -24z"/>
<path d="M7872 9095 c10 -89 70 -136 146 -115 24 6 40 15 36 21 -3 6 -31 21
-62 35 -65 29 -102 60 -102 86 0 10 -5 18 -11 18 -8 0 -10 -15 -7 -45z"/>
<path d="M5045 9016 c44 -41 83 -71 87 -68 3 4 8 22 10 40 3 32 1 34 -75 67
-43 19 -83 35 -90 35 -7 0 24 -34 68 -74z"/>
<path d="M10070 9037 c0 -63 66 -237 89 -237 5 0 19 12 30 26 36 45 28 74 -45
163 -36 45 -68 81 -70 81 -2 0 -4 -15 -4 -33z"/>
<path d="M6547 9046 c-51 -18 -74 -41 -104 -99 -32 -63 -95 -132 -152 -165
-25 -14 -91 -56 -146 -92 -85 -55 -112 -68 -170 -78 -39 -7 -90 -12 -115 -11
-49 2 -220 -39 -220 -52 0 -22 41 -28 131 -18 121 12 286 14 370 4 100 -11
138 10 224 121 162 211 173 222 233 251 42 21 69 44 105 91 l49 62 -84 0 c-45
-1 -100 -7 -121 -14z"/>
<path d="M6810 8903 c-14 -113 -14 -152 1 -190 7 -20 15 -23 60 -23 47 0 55 4
91 40 22 22 43 40 47 40 4 0 20 -14 37 -31 40 -43 113 -89 141 -89 21 0 22 2
11 28 -24 55 -60 101 -99 127 -26 17 -47 42 -59 70 -10 24 -29 51 -42 59 -18
12 -164 76 -173 76 -1 0 -8 -48 -15 -107z"/>
<path d="M8910 8960 c0 -27 5 -50 10 -50 6 0 10 -5 10 -10 0 -6 -6 -10 -12 -9
-49 6 -218 -3 -218 -12 0 -5 5 -7 10 -4 6 3 10 1 10 -6 0 -8 4 -8 13 -2 14 12
77 13 77 2 0 -4 -5 -11 -12 -15 -17 -11 -78 -13 -78 -3 0 5 -4 9 -10 9 -5 0
-10 -13 -10 -30 l0 -30 70 0 c40 0 70 4 70 10 0 6 23 10 50 10 28 0 50 -4 50
-10 0 -5 -15 -10 -32 -10 l-33 0 3 -447 c2 -246 5 -450 8 -452 12 -12 22 25
16 58 -5 34 -4 35 14 21 17 -14 18 -13 6 1 -10 13 -10 19 3 29 12 10 14 4 14
-44 -1 -39 -5 -54 -13 -50 -6 4 -3 -1 6 -11 10 -11 20 -17 22 -14 8 8 11 909
4 909 -5 0 -8 5 -8 10 0 6 88 10 245 10 157 0 245 -4 245 -10 0 -5 14 -10 30
-10 58 0 33 27 -56 59 -84 31 -87 31 -280 31 -189 0 -194 1 -194 21 0 11 -4
17 -10 14 -6 -4 -7 11 -4 39 5 31 3 46 -5 46 -7 0 -11 -19 -11 -50z m-50 -90
c0 -12 -42 -31 -50 -23 -6 5 30 33 42 33 4 0 8 -5 8 -10z m40 -5 c0 -16 -38
-40 -48 -30 -4 4 4 15 17 26 28 23 31 23 31 4z m60 5 c0 -5 -5 -10 -11 -10 -5
0 -7 5 -4 10 3 6 8 10 11 10 2 0 4 -4 4 -10z m388 -3 c15 -10 16 -37 1 -37 -5
0 -7 5 -3 11 4 7 -2 6 -17 -1 -17 -10 -24 -10 -27 -2 -3 9 -9 9 -24 1 -14 -8
-23 -8 -27 -1 -4 7 -12 8 -21 2 -22 -14 -33 -12 -26 5 5 14 4 14 -16 0 -13 -8
-26 -15 -31 -15 -5 0 -6 7 -3 15 5 14 4 14 -16 0 -13 -8 -26 -15 -31 -15 -5 0
-6 7 -3 15 5 14 4 14 -16 0 -13 -8 -26 -15 -31 -15 -5 0 -6 7 -3 15 5 14 4 14
-16 0 -28 -19 -42 -19 -34 0 5 13 2 13 -20 -1 -31 -21 -46 -8 -18 14 17 15 46
17 195 17 96 0 180 -4 187 -8z m-418 -27 c-20 -12 -33 -1 -19 16 9 11 15 12
23 4 8 -8 7 -13 -4 -20z m480 5 l25 -15 -32 2 c-19 1 -33 8 -33 15 0 16 9 16
40 -2z m-470 -111 c0 -8 -5 -25 -11 -36 -7 -14 -8 -18 0 -14 7 5 10 -12 10
-49 -1 -38 -4 -53 -13 -48 -8 5 -8 3 0 -8 7 -8 12 -56 13 -113 1 -91 0 -97
-16 -85 -15 13 -15 12 0 -12 19 -29 23 -180 5 -213 -7 -12 -7 -16 0 -12 6 4
10 -15 11 -49 0 -33 -4 -53 -9 -50 -5 3 -7 0 -4 -8 3 -8 -2 -20 -11 -27 -13
-11 -15 -9 -15 9 0 12 5 32 11 43 6 12 7 18 1 14 -6 -4 -10 17 -10 54 0 55 2
60 17 48 14 -11 14 -11 4 3 -7 9 -9 20 -5 24 4 5 2 5 -4 2 -9 -5 -12 11 -12
53 0 42 3 58 12 53 6 -3 8 -3 4 2 -4 4 -2 15 5 24 11 14 10 14 -5 3 -16 -13
-17 -9 -17 52 1 47 4 64 12 59 7 -3 9 -3 5 2 -4 4 -2 15 5 24 11 14 10 14 -5
2 -16 -12 -18 -11 -18 14 0 16 8 38 18 49 14 17 14 18 1 8 -15 -12 -17 -7 -17
48 0 37 4 58 10 54 6 -4 5 2 -1 14 -6 11 -11 31 -11 43 0 19 2 20 18 8 14 -11
13 -10 -2 9 -19 22 -19 22 2 22 13 0 22 -6 22 -16z"/>
<path d="M3707 8963 c-3 -16 1 -32 9 -40 12 -12 14 -9 14 26 0 46 -15 55 -23
14z"/>
<path d="M3702 8895 c0 -16 2 -22 5 -12 2 9 2 23 0 30 -3 6 -5 -1 -5 -18z"/>
<path d="M7836 8895 c-4 -15 0 -37 8 -54 13 -25 13 -31 1 -47 -20 -27 -18 -52
5 -64 24 -13 50 -60 50 -92 1 -36 33 -100 74 -143 20 -22 72 -92 116 -156 58
-85 107 -143 182 -213 105 -98 122 -103 98 -31 -15 44 -53 91 -91 111 -40 20
-97 72 -131 118 -23 32 -28 49 -28 99 l0 59 -73 72 c-72 71 -75 76 -132 219
-32 81 -62 147 -66 147 -4 0 -10 -11 -13 -25z"/>
<path d="M3730 8882 c0 -10 -6 -24 -12 -31 -11 -10 -10 -11 5 -6 15 6 26 55
12 55 -3 0 -5 -8 -5 -18z"/>
<path d="M3538 8882 c-43 -3 -48 -5 -48 -28 0 -13 -4 -24 -10 -24 -5 0 -10 -9
-10 -20 0 -18 7 -20 80 -20 47 0 80 4 80 10 0 6 14 10 30 10 17 0 30 -4 30
-10 0 -5 -6 -10 -12 -10 -10 0 -12 -71 -10 -329 3 -325 3 -329 -17 -336 -20
-6 -21 -14 -21 -146 0 -113 3 -139 14 -139 8 0 17 -6 19 -12 3 -7 6 -3 6 8 1
18 18 34 37 34 2 0 4 -20 4 -45 0 -38 -3 -45 -20 -45 -11 0 -20 5 -20 11 0 7
-9 0 -20 -13 -19 -25 -22 -80 -5 -107 4 -7 2 -24 -6 -37 -7 -13 -10 -27 -7
-30 10 -10 48 20 48 38 0 21 20 34 29 19 4 -7 15 -9 25 -5 11 4 21 1 27 -7 5
-8 8 231 6 563 -1 318 -5 578 -9 578 -5 0 -8 5 -8 10 0 6 103 10 290 10 187 0
290 4 290 10 0 6 -1 10 -3 10 -1 0 -33 9 -71 20 -55 15 -104 20 -245 21 -163
2 -179 1 -218 -20 -24 -12 -43 -18 -43 -14 0 4 -5 2 -12 -5 -19 -19 -38 -14
-39 11 l0 22 -9 -22 c-15 -37 -90 -27 -90 13 0 28 -4 30 -62 26z m292 -42 c0
-15 -7 -20 -27 -20 l-28 1 24 19 c29 25 31 25 31 0z m40 16 c0 -2 -7 -9 -15
-16 -12 -10 -15 -10 -15 4 0 9 7 16 15 16 8 0 15 -2 15 -4z m70 -15 c0 -15 -7
-18 -40 -17 -22 0 -40 3 -40 6 0 15 27 30 52 30 21 0 28 -5 28 -19z m40 15 c0
-2 -7 -9 -15 -16 -12 -10 -15 -10 -15 4 0 9 7 16 15 16 8 0 15 -2 15 -4z m70
-15 c0 -15 -7 -18 -40 -17 -22 0 -40 3 -40 6 0 15 27 30 52 30 21 0 28 -5 28
-19z m40 15 c0 -2 -7 -9 -15 -16 -12 -10 -15 -10 -15 4 0 9 7 16 15 16 8 0 15
-2 15 -4z m70 -15 c0 -15 -7 -18 -40 -17 -22 0 -40 3 -40 6 0 15 27 30 52 30
21 0 28 -5 28 -19z m30 8 c0 -6 9 -8 20 -4 11 3 20 2 20 -3 0 -5 -9 -12 -20
-15 -11 -3 -20 -1 -20 5 0 5 -4 6 -10 3 -5 -3 -10 1 -10 9 0 9 5 16 10 16 6 0
10 -5 10 -11z m80 -19 c12 -8 11 -10 -7 -10 -13 0 -23 5 -23 10 0 13 11 13 30
0z m-530 -30 c0 -5 -9 -10 -20 -10 -11 0 -20 5 -20 10 0 6 9 10 20 10 11 0 20
-4 20 -10z m-2 -106 c0 -50 -1 -54 -16 -42 -15 11 -14 10 1 -8 20 -24 24 -69
5 -58 -10 6 -10 5 -1 -7 14 -17 14 -106 1 -133 -7 -13 -7 -16 1 -12 15 10 14
-37 -1 -53 -10 -11 -10 -13 0 -7 8 5 12 -1 12 -19 0 -17 -4 -24 -12 -19 -6 4
-8 3 -5 -3 4 -6 0 -16 -7 -22 -12 -10 -14 1 -14 73 0 49 4 83 9 80 5 -3 4 6
-3 20 -8 20 -8 32 0 52 7 14 8 23 2 19 -17 -11 -11 37 8 59 16 19 16 20 0 7
-16 -12 -17 -8 -16 58 1 60 4 71 18 71 14 0 17 -10 18 -56z m2 -400 c0 -16 -4
-23 -12 -18 -6 4 -8 3 -5 -3 4 -6 0 -16 -8 -23 -13 -10 -15 -9 -15 10 0 20 25
60 37 60 1 0 3 -12 3 -26z m-2 -90 c0 -38 -5 -57 -15 -61 -21 -8 -26 3 -13 27
8 15 8 20 1 16 -17 -11 -13 26 5 52 8 12 17 22 19 22 2 0 3 -25 3 -56z m-28
-179 c0 -38 -3 -45 -20 -45 -17 0 -20 7 -20 38 0 41 6 52 27 52 9 0 13 -14 13
-45z m0 -100 c0 -38 -3 -45 -20 -45 -17 0 -20 7 -20 39 0 35 8 48 33 50 4 1 7
-19 7 -44z m0 -200 c0 -32 -4 -45 -14 -45 -26 0 -38 74 -13 83 24 10 27 6 27
-38z"/>
<path d="M10470 8853 c0 -3 24 -33 54 -67 29 -34 62 -79 74 -101 11 -22 48
-65 82 -94 34 -30 76 -76 92 -103 16 -26 32 -48 34 -48 2 0 1 33 -2 74 -4 42
-3 76 3 79 5 3 42 -4 81 -15 40 -12 75 -19 78 -16 2 3 6 18 7 33 2 24 -3 30
-30 37 -19 5 -66 40 -112 82 l-79 74 -60 -5 c-54 -5 -65 -3 -114 25 -60 34
-108 55 -108 45z"/>
<path d="M5815 8810 c-16 -11 -45 -20 -63 -20 -18 0 -58 -9 -90 -21 -31 -11
-91 -24 -132 -29 -41 -5 -100 -18 -130 -29 -66 -25 -155 -82 -149 -96 8 -20
179 -11 257 13 46 14 98 22 144 22 54 0 79 5 110 22 46 26 91 95 86 133 l-3
25 -30 -20z"/>
<path d="M4160 8788 c0 -7 3 -24 7 -37 6 -22 6 -22 19 9 18 41 18 40 -6 40
-11 0 -20 -6 -20 -12z"/>
<path d="M4260 8785 c7 -8 16 -15 21 -15 5 0 9 7 9 15 0 9 -9 15 -21 15 -18 0
-19 -2 -9 -15z"/>
<path d="M3428 8781 c-9 -3 -26 -18 -37 -33 l-21 -27 52 -10 c111 -23 213 -38
226 -33 13 4 15 33 6 70 -6 21 -12 22 -91 22 -46 0 -92 4 -101 9 -9 5 -25 6
-34 2z"/>
<path d="M3823 8773 c-23 -3 -33 -10 -38 -30 -3 -14 -5 -27 -3 -29 5 -4 120
44 131 55 11 11 -21 12 -90 4z"/>
<path d="M5030 8775 c0 -3 17 -28 38 -56 l37 -50 22 48 23 48 -23 7 c-27 8
-97 10 -97 3z"/>
<path d="M4316 8741 c-4 -7 -5 -15 -2 -18 9 -9 19 4 14 18 -4 11 -6 11 -12 0z"/>
<path d="M5138 8674 c-5 -4 -8 -23 -7 -43 0 -34 1 -34 10 -11 11 27 8 66 -3
54z"/>
<path d="M9880 8630 l0 -40 125 0 125 0 0 40 0 40 -125 0 -125 0 0 -40z"/>
<path d="M10150 8629 c0 -36 3 -41 33 -53 17 -8 47 -17 65 -21 31 -6 32 -6 32
28 0 19 -6 37 -12 40 -7 3 -37 14 -65 26 l-53 21 0 -41z"/>
<path d="M5150 8590 c0 -5 -6 -7 -14 -4 -9 4 -15 -5 -18 -26 -3 -19 -1 -29 6
-27 6 2 10 12 8 22 -3 13 1 16 12 12 11 -5 16 0 16 13 0 11 -2 20 -5 20 -3 0
-5 -4 -5 -10z"/>
<path d="M4932 8582 c-8 -6 -2 -9 18 -9 20 0 26 3 18 9 -7 4 -15 8 -18 8 -3 0
-11 -4 -18 -8z"/>
<path d="M5015 8580 c-16 -7 -17 -9 -3 -9 9 -1 20 4 23 9 7 11 7 11 -20 0z"/>
<path d="M5210 8580 c0 -5 5 -10 10 -10 6 0 10 5 10 10 0 6 -4 10 -10 10 -5 0
-10 -4 -10 -10z"/>
<path d="M5250 8580 c0 -6 7 -10 15 -10 8 0 15 2 15 4 0 2 -7 6 -15 10 -8 3
-15 1 -15 -4z"/>
<path d="M4708 8558 c-32 -11 -58 -24 -58 -29 0 -15 48 -10 58 7 5 8 33 21 63
29 39 9 46 13 24 13 -16 0 -56 -9 -87 -20z"/>
<path d="M4838 8573 c7 -3 16 -2 19 1 4 3 -2 6 -13 5 -11 0 -14 -3 -6 -6z"/>
<path d="M4140 8085 l0 -485 -50 0 -50 0 0 275 0 275 -130 0 -130 0 0 -271 c0
-177 -3 -268 -10 -264 -5 3 -11 0 -11 -7 -1 -7 -3 -20 -4 -28 -1 -8 -3 -21 -4
-27 0 -7 -10 -13 -21 -13 -26 0 -26 -22 1 -38 13 -8 19 -21 17 -35 -2 -17 -10
-22 -38 -24 -60 -3 -75 -7 -82 -25 -4 -10 -17 -18 -28 -18 -11 0 -20 -5 -20
-11 0 -6 -9 -8 -20 -4 -11 4 -20 2 -20 -4 0 -23 76 -11 124 19 47 30 66 32 66
4 0 -20 10 -18 52 11 45 30 68 32 75 5 4 -14 14 -20 34 -20 18 0 32 -6 36 -17
9 -22 -34 -56 -62 -49 -19 5 -22 2 -17 -21 5 -24 3 -25 -27 -21 -27 4 -34 1
-41 -18 -6 -16 -15 -21 -28 -17 -11 2 -23 0 -26 -6 -4 -6 -1 -9 7 -5 8 3 18 0
22 -6 4 -7 17 -4 40 10 18 11 66 29 106 39 143 36 557 71 860 71 l147 0 26
105 c14 57 26 106 26 109 0 3 -12 6 -27 8 -41 5 -41 28 0 28 54 0 57 19 57
371 l0 309 -145 0 -145 0 0 -350 0 -350 -27 0 c-16 0 -38 3 -50 6 l-23 6 0
457 0 456 -57 22 c-32 12 -66 25 -75 29 -17 6 -18 -21 -18 -480 0 -425 -2
-486 -15 -486 -13 0 -15 61 -15 485 l0 485 -140 0 -140 0 0 -485z m90 310 l0
-75 -30 0 -30 0 0 75 0 75 30 0 30 0 0 -75z m88 -2 l3 -73 -36 0 -35 0 0 68
c0 38 3 72 7 76 4 4 19 6 33 4 24 -3 25 -6 28 -75z m82 2 l0 -75 -30 0 -30 0
0 75 0 75 30 0 30 0 0 -75z m134 39 c13 -5 16 -22 16 -76 0 -60 -2 -69 -16
-64 -9 3 -18 6 -20 6 -2 0 -4 32 -4 70 0 39 2 70 4 70 2 0 11 -3 20 -6z m16
-240 c0 -57 -2 -65 -17 -62 -15 3 -19 16 -21 76 -3 71 -2 73 18 62 17 -9 20
-20 20 -76z m-140 26 c0 -19 -7 -20 -120 -20 -113 0 -120 1 -120 20 0 19 7 20
120 20 113 0 120 -1 120 -20z m390 -90 l0 -60 -35 0 -35 0 0 60 0 60 35 0 35
0 0 -60z m80 0 l0 -60 -30 0 -30 0 0 60 0 60 30 0 30 0 0 -60z m90 0 l0 -60
-35 0 -35 0 0 60 0 60 35 0 35 0 0 -60z m-740 -75 l0 -75 -30 0 -30 0 0 75 0
75 30 0 30 0 0 -75z m88 3 l-3 -73 -30 0 -30 0 -3 73 -3 72 36 0 36 0 -3 -72z
m82 -3 l0 -75 -30 0 -30 0 0 75 0 75 30 0 30 0 0 -75z m148 -18 c3 -66 2 -68
-20 -65 -13 2 -23 9 -22 16 1 6 2 37 3 68 1 47 4 55 19 52 14 -3 18 -16 20
-71z m-688 2 c0 -49 -1 -50 -27 -47 -24 2 -29 8 -31 36 -5 47 3 62 33 62 23 0
25 -3 25 -51z m75 1 c0 -42 -2 -45 -27 -48 -27 -3 -28 -2 -28 48 0 50 1 51 28
48 25 -3 27 -6 27 -48z m75 -1 c0 -49 -1 -50 -27 -47 -24 2 -29 8 -31 36 -5
47 3 62 33 62 23 0 25 -3 25 -51z m960 -54 c0 -12 -20 -15 -120 -15 -100 0
-120 3 -120 15 0 13 20 15 120 15 100 0 120 -2 120 -15z m-960 -50 c0 -12 -18
-15 -105 -15 -87 0 -105 3 -105 15 0 12 18 15 105 15 87 0 105 -3 105 -15z
m524 9 c12 -5 16 -21 16 -75 0 -38 -3 -69 -6 -69 -3 0 -14 5 -25 10 -16 9 -19
22 -19 75 0 64 4 71 34 59z m-124 -54 c0 -19 -7 -20 -120 -20 -113 0 -120 1
-120 20 0 19 7 20 120 20 113 0 120 -1 120 -20z m388 -52 c-3 -63 -3 -63 -33
-63 -30 0 -30 0 -33 63 l-3 62 36 0 36 0 -3 -62z m82 -3 l0 -65 -30 0 -30 0 0
65 0 65 30 0 30 0 0 -65z m88 3 c-3 -63 -3 -63 -33 -63 -30 0 -30 0 -33 63
l-3 62 36 0 36 0 -3 -62z m-1108 -3 c0 -43 -1 -45 -30 -45 -29 0 -30 2 -30 45
0 43 1 45 30 45 29 0 30 -2 30 -45z m78 -2 c3 -42 2 -43 -27 -43 -30 0 -31 1
-31 46 0 44 1 45 28 42 24 -3 27 -7 30 -45z m72 2 c0 -43 -1 -45 -30 -45 -29
0 -30 2 -30 45 0 43 1 45 30 45 29 0 30 -2 30 -45z m220 -115 l0 -70 -30 0
-30 0 0 70 0 70 30 0 30 0 0 -70z m90 0 l0 -70 -35 0 -35 0 0 70 0 70 35 0 35
0 0 -70z m80 0 l0 -70 -30 0 -30 0 0 70 0 70 30 0 30 0 0 -70z m131 60 c16 -9
19 -22 19 -75 0 -66 -10 -81 -38 -53 -12 12 -18 138 -6 138 3 0 14 -5 25 -10z
m-521 -50 c0 -6 -42 -10 -105 -10 -63 0 -105 4 -105 10 0 6 42 10 105 10 63 0
105 -4 105 -10z m960 -35 c0 -12 -20 -15 -120 -15 -100 0 -120 3 -120 15 0 13
20 15 120 15 100 0 120 -2 120 -15z m-1110 -61 c0 -33 -2 -36 -22 -30 -13 3
-26 6 -30 6 -5 0 -8 14 -8 30 0 27 3 30 30 30 28 0 30 -3 30 -36z m78 4 c-2
-28 -8 -34 -30 -36 -26 -3 -28 -1 -28 32 0 33 2 36 31 36 28 0 30 -2 27 -32z
m72 -3 c0 -32 -2 -35 -30 -35 -28 0 -30 3 -30 35 0 32 2 35 30 35 28 0 30 -3
30 -35z m785 -35 c4 -6 -8 -10 -29 -10 -20 0 -36 5 -36 10 0 6 13 10 29 10 17
0 33 -4 36 -10z m85 0 c0 -5 -13 -10 -30 -10 -16 0 -30 5 -30 10 0 6 14 10 30
10 17 0 30 -4 30 -10z"/>
<path d="M5223 8552 c-14 -2 -20 -8 -16 -18 4 -10 22 -14 64 -14 50 0 59 3 59
18 0 13 -9 17 -42 17 -24 0 -53 -1 -65 -3z"/>
<path d="M9293 8553 c-22 -8 -14 -23 12 -23 14 0 25 6 25 13 0 14 -14 17 -37
10z"/>
<path d="M4748 8543 c7 -3 16 -2 19 1 4 3 -2 6 -13 5 -11 0 -14 -3 -6 -6z"/>
<path d="M4785 8542 c9 -9 65 -11 65 -3 0 4 -16 7 -36 8 -19 1 -33 -2 -29 -5z"/>
<path d="M4998 8543 c7 -3 16 -2 19 1 4 3 -2 6 -13 5 -11 0 -14 -3 -6 -6z"/>
<path d="M5150 8540 c0 -5 4 -10 9 -10 6 0 13 5 16 10 3 6 -1 10 -9 10 -9 0
-16 -4 -16 -10z"/>
<path d="M9880 8455 l0 -85 125 0 125 0 0 85 0 85 -125 0 -125 0 0 -85z"/>
<path d="M10150 8456 l0 -84 53 -18 c28 -9 58 -19 65 -22 10 -3 12 15 10 83
l-3 88 -35 12 c-19 7 -47 15 -62 19 l-28 6 0 -84z"/>
<path d="M5100 8389 l0 -131 -22 6 c-13 4 -30 10 -39 12 -23 8 -29 -68 -29
-347 l0 -227 30 11 c17 6 30 17 30 24 0 9 7 10 23 4 13 -5 34 -7 48 -4 l26 5
6 216 c4 120 7 295 7 390 l0 172 -40 0 -40 0 0 -131z m57 -29 c0 -66 -3 -120
-7 -120 -19 0 -25 30 -26 133 -2 94 0 107 15 107 15 0 17 -15 18 -120z m-49
-257 c3 -58 2 -61 -18 -56 -17 5 -20 13 -20 65 0 51 2 59 18 56 14 -3 18 -15
20 -65z m-14 -79 c12 -5 16 -21 16 -66 0 -51 -2 -59 -16 -54 -9 3 -18 6 -20 6
-2 0 -4 27 -4 60 0 33 2 60 4 60 2 0 11 -3 20 -6z m0 -140 c12 -5 16 -21 16
-66 0 -51 -2 -59 -17 -56 -15 3 -19 16 -21 66 -2 34 -1 62 2 62 2 0 11 -3 20
-6z"/>
<path d="M7490 8030 l0 -440 -81 0 -81 0 5 318 c2 174 7 327 12 340 7 21 5 22
-36 22 l-44 0 3 -340 c2 -233 0 -340 -8 -340 -6 0 -10 56 -10 165 l0 165 -85
0 -85 0 0 -165 c0 -103 -4 -165 -10 -165 -6 0 -10 60 -10 160 0 174 2 170 -59
149 l-31 -11 0 -148 0 -148 -45 -4 -45 -3 0 42 c0 39 -2 43 -25 43 l-25 0 0
280 0 280 -85 0 -85 0 0 -325 c0 -210 -4 -325 -10 -325 -6 0 -10 115 -10 326
l0 325 -42 -23 -43 -23 -3 -283 -2 -282 -150 0 -150 0 0 -35 0 -35 -50 0 -50
0 0 85 0 85 -165 0 -165 0 0 -35 c0 -35 0 -35 -45 -35 -25 0 -45 -2 -45 -5 0
-3 8 -18 18 -32 13 -21 18 -56 22 -164 3 -76 8 -141 12 -145 15 -15 250 -44
426 -53 188 -10 601 -1 936 19 194 12 199 14 264 83 25 25 72 38 72 18 0 -5
25 -12 55 -16 35 -4 65 -15 83 -29 27 -23 28 -23 279 -18 246 5 253 5 259 26
3 11 13 28 20 37 22 24 53 120 60 184 l7 57 -59 -7 c-32 -3 -104 -15 -159 -26
-63 -13 -116 -18 -142 -14 l-43 6 0 419 0 420 -60 30 -60 30 0 -445 c0 -290
-3 -445 -10 -445 -7 0 -10 155 -10 445 l0 445 -105 0 -105 0 0 -440z m-177
193 c3 -10 4 -155 3 -322 -1 -234 -4 -305 -13 -308 -10 -4 -13 65 -13 321 0
195 4 326 9 326 5 0 12 -8 14 -17z"/>
<path d="M7297 8395 c-4 -8 -2 -17 3 -20 6 -4 10 3 10 14 0 25 -6 27 -13 6z"/>
<path d="M9173 8334 l-53 -23 0 -244 0 -244 27 -49 c26 -46 28 -60 35 -209 7
-165 14 -221 29 -231 5 -3 9 -16 9 -30 0 -16 6 -24 18 -24 127 0 787 -110 936
-156 16 -5 17 -2 11 24 -5 24 -2 33 15 45 12 8 29 13 39 10 9 -2 23 3 30 11
12 14 16 14 42 0 26 -13 29 -13 29 1 0 8 7 15 16 15 8 0 12 5 9 10 -4 6 -15 8
-26 5 -14 -5 -21 0 -29 20 -8 22 -13 24 -30 15 -26 -14 -43 -3 -38 24 4 19 1
22 -17 19 -11 -3 -32 4 -45 15 -31 25 -21 52 19 52 20 0 30 6 34 20 7 27 32
25 71 -5 37 -28 56 -32 56 -10 0 21 27 19 62 -7 33 -23 136 -40 124 -20 -4 6
-13 9 -21 5 -8 -3 -15 0 -15 6 0 6 -11 11 -25 11 -16 0 -25 6 -25 15 0 8 -8
15 -18 15 -10 0 -22 3 -26 8 -4 4 -22 7 -39 7 -25 0 -33 5 -35 22 -2 14 4 27
17 35 26 16 27 38 2 38 -19 0 -35 25 -26 41 10 15 -15 49 -35 49 -10 0 -20 5
-22 11 -3 9 -109 59 -125 59 -2 0 -3 -16 -3 -35 0 -19 -4 -35 -10 -35 -5 0
-10 16 -10 35 l0 35 -125 0 -125 0 0 -36 0 -35 -42 3 -43 3 -3 203 -2 202 -85
0 -85 0 0 -200 c0 -127 -4 -200 -10 -200 -6 0 -10 73 -10 199 l0 200 -42 -13
-43 -12 -3 -187 -2 -187 -25 0 -25 0 0 365 0 365 -105 0 -105 0 0 -365 c0
-234 -4 -365 -10 -365 -6 0 -11 133 -12 364 l-3 363 -52 -23z m137 -399 c0
-185 -4 -296 -10 -300 -7 -4 -10 98 -10 300 0 202 3 304 10 300 6 -4 10 -115
10 -300z m50 -55 c0 -160 -4 -250 -10 -250 -6 0 -10 90 -10 250 0 160 4 250
10 250 6 0 10 -90 10 -250z m60 -80 c0 -107 -4 -170 -10 -170 -6 0 -10 61 -10
163 0 144 3 177 17 177 2 0 3 -76 3 -170z"/>
<path d="M4805 8330 c-3 -5 3 -10 15 -10 12 0 18 5 15 10 -3 6 -10 10 -15 10
-5 0 -12 -4 -15 -10z"/>
<path d="M6963 8308 c-29 -11 -53 -25 -53 -29 0 -14 36 -10 49 5 7 8 22 12 34
10 20 -4 20 -4 3 4 -19 8 -18 9 5 15 13 4 88 7 167 7 135 0 142 -1 142 -20 0
-14 5 -18 17 -13 11 4 12 8 5 11 -31 10 -6 21 56 25 37 2 -32 4 -153 4 -201 2
-225 0 -272 -19z"/>
<path d="M9880 8245 l0 -85 125 0 125 0 0 85 0 85 -125 0 -125 0 0 -85z"/>
<path d="M10150 8242 l0 -88 65 -21 66 -21 -3 90 -3 91 -50 18 c-78 27 -75 29
-75 -69z"/>
<path d="M7280 8294 c0 -8 5 -12 10 -9 6 4 8 11 5 16 -9 14 -15 11 -15 -7z"/>
<path d="M7046 8292 c-3 -5 1 -9 9 -9 8 0 15 4 15 9 0 4 -4 8 -9 8 -6 0 -12
-4 -15 -8z"/>
<path d="M7352 8288 c3 -7 25 -14 51 -16 37 -2 47 0 47 12 0 12 -12 16 -51 16
-36 0 -49 -4 -47 -12z"/>
<path d="M9880 8035 l0 -85 125 0 125 0 0 85 0 85 -125 0 -125 0 0 -85z"/>
<path d="M7035 8100 c-3 -5 1 -10 10 -10 9 0 13 5 10 10 -3 6 -8 10 -10 10 -2
0 -7 -4 -10 -10z"/>
<path d="M10150 8026 l0 -83 59 -22 c32 -11 61 -21 65 -21 3 0 6 40 6 89 l0
90 -54 15 c-30 9 -59 16 -65 16 -7 0 -11 -30 -11 -84z"/>
<path d="M9880 7820 l0 -80 125 0 125 0 0 80 0 80 -125 0 -125 0 0 -80z"/>
<path d="M10150 7818 l0 -83 58 -23 c32 -12 61 -22 65 -22 4 0 6 39 5 87 l-3
87 -44 13 c-24 7 -52 15 -62 18 -18 6 -19 0 -19 -77z"/>
<path d="M3295 7630 c19 -12 31 -16 34 -9 4 14 -18 29 -44 29 -17 0 -15 -4 10
-20z"/>
<path d="M10424 7605 c25 -19 36 -19 36 0 0 10 -10 15 -27 15 -27 -1 -27 -1
-9 -15z"/>
<path d="M10565 7380 c-3 -5 -1 -10 4 -10 6 0 11 5 11 10 0 6 -2 10 -4 10 -3
0 -8 -4 -11 -10z"/>
<path d="M3560 7256 c20 -25 96 -49 127 -41 25 7 26 8 8 15 -11 4 -21 3 -23
-1 -6 -15 -32 -10 -38 6 -4 8 -14 15 -24 15 -11 0 -22 5 -25 10 -3 6 -13 10
-22 10 -12 0 -13 -3 -3 -14z"/>
<path d="M3244 7235 c23 -17 42 -19 51 -5 3 6 -1 7 -9 4 -9 -3 -16 -1 -16 5 0
6 -10 11 -22 11 -22 -1 -23 -1 -4 -15z"/>
<path d="M10484 7240 c-12 -5 -25 -14 -29 -20 -4 -6 -21 -8 -43 -5 -28 5 -33
4 -22 -4 23 -16 57 -13 100 9 54 28 49 42 -6 20z"/>
<path d="M10820 7227 c0 -5 -7 -6 -16 -3 -8 3 -12 2 -9 -4 9 -14 41 -12 53 3
8 10 6 13 -9 13 -10 0 -19 -4 -19 -9z"/>
<path d="M3390 7576 c0 -2 8 -10 18 -17 15 -13 16 -12 3 4 -13 16 -21 21 -21
13z"/>
<path d="M10679 7553 c-13 -16 -12 -17 4 -4 9 7 17 15 17 17 0 8 -8 3 -21 -13z"/>
<path d="M3353 7388 c-2 -5 14 -8 36 -8 23 0 41 3 41 8 0 4 -16 7 -36 7 -20 0
-38 -3 -41 -7z"/>
<path d="M10660 7378 c0 -5 19 -8 42 -8 23 0 38 3 35 6 -9 10 -77 11 -77 2z"/>
<path d="M10940 7089 c0 -5 5 -7 10 -4 6 3 10 8 10 11 0 2 -4 4 -10 4 -5 0
-10 -5 -10 -11z"/>
<path d="M6318 4959 c-1785 -53 -3594 -430 -5028 -1047 -217 -93 -269 -121
-285 -152 -28 -55 -18 -1501 15 -2010 20 -308 41 -479 64 -513 37 -55 54 -55
268 -7 208 46 1075 261 1353 335 548 145 1230 281 1860 369 1695 238 3417 230
5151 -24 694 -102 1431 -250 1944 -390 386 -106 1271 -330 1304 -330 13 0 37
11 53 24 l27 24 33 653 c38 746 57 1771 34 1828 -15 36 -46 50 -371 169 -2120
776 -4271 1135 -6422 1071z m1519 -540 c168 -22 267 -21 340 5 l41 14 5 -32
c7 -45 -7 -113 -30 -144 -39 -53 -70 -67 -141 -67 -56 0 -82 6 -151 37 -47 21
-87 36 -89 33 -6 -5 -101 -409 -97 -413 1 -2 33 -8 69 -14 48 -8 77 -8 102 0
30 9 36 8 45 -9 21 -41 -22 -104 -78 -115 -19 -4 -61 1 -99 10 -37 9 -67 16
-69 14 -1 -2 -21 -86 -44 -188 -84 -365 -85 -368 -171 -391 -34 -9 -55 -9 -87
0 -24 7 -43 15 -43 20 0 4 63 263 140 576 78 312 138 570 136 573 -11 10 -83
-18 -123 -47 -75 -55 -120 -190 -89 -266 20 -46 12 -55 -49 -55 -109 0 -162
107 -120 246 34 117 162 199 345 224 85 11 89 11 257 -11z m-1288 -85 c19 -14
22 -23 18 -54 -15 -118 -122 -215 -263 -241 -122 -23 -216 45 -216 156 0 63
25 103 80 127 36 16 53 19 81 12 33 -9 35 -11 35 -53 1 -35 6 -48 28 -64 24
-18 32 -19 66 -9 46 14 86 51 113 104 22 43 26 44 58 22z m3866 -308 c35 -15
65 -59 65 -96 0 -63 -66 -120 -138 -120 -120 0 -140 159 -27 211 49 22 56 23
100 5z m-3831 -52 c24 -24 20 -65 -20 -182 -20 -59 -42 -136 -50 -172 -24
-114 -15 -286 17 -306 6 -4 28 13 49 37 35 41 40 43 66 34 57 -20 35 -105 -48
-182 -54 -49 -104 -67 -171 -60 -67 6 -103 44 -113 117 -10 79 -10 79 -105
-39 -61 -75 -89 -94 -151 -99 -65 -5 -113 23 -143 83 -31 62 -27 232 9 345 14
47 29 108 32 137 7 59 -2 123 -18 123 -6 0 -54 -42 -107 -94 l-96 -95 3 -55
c11 -175 -118 -395 -276 -473 -48 -24 -69 -28 -139 -28 -74 0 -85 3 -125 30
-30 22 -53 50 -77 97 -29 58 -34 79 -38 160 -12 226 104 466 263 544 64 31
155 42 210 24 51 -16 104 -56 104 -78 -1 -40 -15 -46 -105 -43 -101 3 -136
-13 -186 -86 -55 -80 -73 -145 -74 -268 0 -98 3 -116 25 -160 42 -85 95 -95
165 -33 65 56 102 160 90 254 -6 51 -7 52 -45 58 -46 7 -60 27 -60 86 0 52 13
76 50 95 52 27 122 15 168 -28 l23 -21 107 111 c118 122 166 153 253 160 48 5
59 3 78 -16 11 -11 21 -31 21 -43 0 -13 -19 -138 -42 -279 -48 -295 -48 -309
19 -309 84 1 171 88 192 193 6 28 15 123 20 210 11 181 24 221 81 249 44 23
123 24 144 2z m-3667 -28 c77 -40 123 -161 92 -243 -15 -39 -57 -81 -89 -88
-28 -6 -92 14 -104 33 -3 6 5 27 19 48 29 42 31 73 10 113 -27 53 -96 57 -149
10 -78 -68 -118 -213 -117 -424 1 -335 110 -555 273 -555 58 0 158 36 228 82
78 52 75 39 85 326 6 169 4 202 -7 202 -8 0 -20 -6 -27 -12 -10 -11 -15 -9
-27 6 -23 31 -17 53 27 101 49 53 111 85 167 85 51 0 72 -26 72 -89 l0 -45 28
45 c33 51 102 116 138 129 14 6 45 10 69 10 53 0 99 -34 125 -93 l18 -40 17
34 c46 90 147 169 216 169 72 0 123 -42 145 -117 14 -47 14 -83 5 -282 -6
-126 -9 -236 -5 -244 11 -29 43 -30 98 -3 86 42 84 37 106 277 25 264 24 259
2 259 -10 0 -23 -5 -29 -11 -7 -7 -14 -1 -23 20 -10 26 -10 35 4 56 27 41 107
93 163 106 45 10 55 10 77 -5 28 -18 42 -56 32 -83 -4 -9 16 6 43 35 60 62
118 91 184 92 88 0 146 -41 189 -135 30 -67 37 -230 14 -327 -32 -137 -107
-265 -195 -333 -82 -64 -214 -96 -271 -65 -12 6 -24 10 -26 8 -2 -3 -15 -132
-29 -287 -14 -156 -30 -295 -37 -309 -19 -40 -74 -72 -122 -72 -73 0 -71 -16
-42 316 15 165 29 319 33 343 l6 45 -49 -41 c-164 -137 -310 -114 -329 51 -3
28 -2 141 3 251 5 110 6 210 1 223 -16 42 -86 24 -144 -37 l-29 -31 -11 -263
c-12 -289 -18 -312 -78 -344 -31 -16 -119 -24 -131 -12 -4 3 -2 98 4 210 22
443 19 457 -64 425 -26 -10 -59 -33 -75 -53 -32 -39 -30 -18 -49 -406 -9 -164
-9 -168 -37 -197 -36 -38 -73 -52 -126 -48 l-44 3 3 39 3 39 -52 -46 c-100
-88 -259 -145 -369 -133 -280 32 -447 447 -349 866 66 280 271 473 466 438 24
-4 55 -14 70 -22z m5547 10 c27 -8 56 -22 67 -32 17 -15 21 -15 53 0 62 29
175 13 161 -23 -16 -40 -165 -574 -165 -590 0 -9 6 -26 14 -37 32 -43 171 -5
194 53 33 81 152 420 152 431 0 10 -8 12 -29 7 -23 -5 -30 -2 -35 13 -12 37
14 69 76 97 71 32 154 37 194 10 22 -14 25 -22 21 -53 -3 -21 -8 -48 -13 -62
-7 -23 -5 -22 35 12 59 50 106 71 173 76 46 3 64 0 91 -17 40 -24 67 -74 67
-121 l0 -31 58 45 c117 92 229 100 301 22 19 -20 26 -40 29 -84 3 -51 -4 -80
-77 -286 -47 -132 -79 -237 -76 -247 16 -50 177 -22 203 35 54 118 163 400
159 410 -3 9 -15 12 -31 9 -23 -5 -26 -2 -26 23 0 41 8 49 70 78 61 29 147 35
190 13 53 -27 50 -44 -60 -307 -113 -271 -124 -302 -115 -330 19 -60 203 -30
219 36 17 67 143 368 202 484 107 208 199 312 303 341 55 16 124 0 161 -37 21
-21 25 -34 25 -87 0 -52 -6 -74 -38 -137 -49 -99 -165 -253 -315 -417 -119
-131 -142 -168 -142 -231 0 -13 11 -34 25 -47 21 -22 33 -25 92 -25 54 0 80 6
128 29 33 15 68 37 77 47 22 26 188 343 188 361 0 10 -9 13 -27 11 -22 -2 -29
1 -31 19 -6 40 15 61 84 83 79 24 113 25 161 5 42 -18 53 -30 53 -63 0 -12
-54 -130 -120 -262 -66 -131 -120 -249 -120 -263 0 -34 26 -52 74 -52 87 0 90
4 221 261 65 129 129 244 141 255 42 39 123 41 179 5 l25 -17 -167 -332 c-93
-182 -169 -335 -171 -339 -2 -5 6 -8 17 -8 74 0 123 -59 101 -123 l-11 -35
-54 19 c-108 38 -109 37 -179 -75 -87 -141 -208 -266 -301 -312 -89 -44 -167
-54 -246 -31 -192 56 -181 298 20 426 65 42 191 87 298 107 49 8 98 18 110 20
17 3 63 58 63 76 0 3 -28 -9 -62 -26 -140 -69 -279 -16 -282 108 -1 25 -3 46
-5 46 -2 0 -18 -9 -35 -19 -86 -53 -256 -77 -349 -49 -56 17 -105 68 -113 118
l-6 39 -42 -23 c-102 -60 -222 -74 -299 -37 -45 22 -77 64 -77 101 0 12 -3 20
-7 18 -109 -55 -132 -63 -203 -66 -124 -5 -170 31 -170 135 0 41 18 103 76
265 45 129 73 221 70 234 -12 46 -95 39 -174 -14 -7 -5 -53 -121 -102 -258
-96 -267 -108 -287 -178 -300 -40 -8 -111 11 -118 31 -3 8 38 135 91 282 53
147 97 281 97 296 1 16 -5 33 -13 38 -25 17 -99 3 -142 -27 -39 -28 -43 -37
-126 -267 -53 -147 -95 -248 -110 -263 -34 -35 -87 -47 -142 -31 -40 12 -44
16 -43 44 l2 31 -65 -30 c-36 -17 -84 -33 -108 -35 -90 -11 -163 41 -172 121
l-6 46 -52 -49 c-75 -68 -116 -86 -196 -86 -85 0 -128 27 -167 105 -24 49 -27
66 -27 155 1 352 271 638 529 561z"/>
<path d="M4630 3648 c-18 -13 -46 -39 -61 -58 -28 -34 -29 -43 -49 -255 -11
-120 -17 -221 -14 -224 3 -3 27 -6 52 -5 142 2 242 151 242 359 0 96 -12 143
-45 179 -31 33 -79 35 -125 4z"/>
<path d="M8345 3822 c-85 -40 -160 -159 -190 -300 -19 -92 -19 -145 0 -181 31
-62 119 -55 204 17 28 24 37 47 92 241 43 150 58 216 50 224 -20 20 -113 19
-156 -1z"/>
<path d="M10890 3783 c-47 -57 -259 -496 -230 -478 13 8 141 180 183 248 57
88 117 214 117 242 0 38 -33 32 -70 -12z"/>
<path d="M10978 2560 c-165 -41 -288 -131 -288 -210 0 -91 107 -103 200 -23
43 37 148 171 176 225 17 34 18 34 -88 8z"/>
<path d="M900 2569 c-25 -9 -150 -31 -279 -48 -372 -50 -482 -80 -542 -149
-29 -32 -31 -40 -27 -93 3 -43 14 -76 41 -126 157 -286 222 -483 248 -748 28
-287 -17 -531 -156 -852 -30 -67 -57 -138 -61 -158 -6 -34 -5 -35 23 -35 16 0
63 9 104 20 410 110 632 141 1009 141 330 0 516 -22 1029 -121 145 -28 266
-49 269 -46 2 3 -1 246 -7 539 -8 357 -8 543 -1 561 5 14 7 26 5 26 -2 0 -201
-49 -442 -109 -673 -168 -921 -223 -971 -218 -50 5 -96 43 -111 91 -26 81 -57
484 -71 936 -6 184 -12 351 -13 370 l-2 36 -45 -17z"/>
<path d="M13147 2467 c-4 -56 -18 -352 -33 -657 -18 -383 -30 -565 -40 -587
-16 -40 -67 -73 -112 -73 -35 0 -856 205 -1237 309 -121 33 -221 59 -222 57
-1 -1 5 -24 15 -51 15 -45 17 -101 14 -582 -2 -293 -1 -533 1 -533 2 0 71 16
153 34 193 45 389 80 584 107 222 30 675 37 890 15 180 -19 402 -62 579 -112
172 -48 240 -64 257 -57 22 8 17 42 -17 113 -45 94 -132 320 -164 425 -152
503 -114 884 125 1251 45 70 70 126 70 163 0 8 -9 33 -20 56 -41 85 -164 121
-611 179 -103 13 -195 29 -206 34 -19 11 -20 7 -26 -91z"/>
</g>
</svg>
